<svg width="110" height="110" fill="none" xmlns="http://www.w3.org/2000/svg"><path d="M55.002 0C24.672 0 0 24.67 0 55.005c0 30.32 24.672 54.996 55.002 54.996 30.32 0 54.998-24.676 54.998-54.996C110 24.671 85.323 0 55.002 0Zm.004 7.633c26.164 0 47.37 21.206 47.37 47.37 0 26.163-21.206 47.369-47.37 47.369-26.165 0-47.371-21.206-47.371-47.37 0-26.163 21.206-47.37 47.37-47.37Z" fill="#000"/><path d="M50.93 52.964H31.706l4.406-6.89h11.943l4.362-6.865H25.772l-4.342 6.865h6.395l-8.708 13.76H54.91l13.595-21.586 4.917 7.816h-4.241l-4.337 6.9H77.78l4.352 6.87h8.252L68.506 25.198 50.93 52.964Zm-16.485-27.51-4.327 6.865 28.263-.01 4.331-6.855H34.445ZM91.169 63.848v.246h.566v1.201h.28v-1.201h.566v-.246h-1.412ZM94.278 63.848l-.555.861-.566-.86h-.246v1.441h.246V64.4l-.025-.155.085.145.46.726h.05l.461-.716.065-.155v1.046h.25v-1.442h-.225ZM28.71 75.05c0 .877-.306 1.638-.912 2.25a3.074 3.074 0 0 1-2.238.92h-3.711c-.891 0-1.637-.3-2.233-.89-.586-.592-.887-1.323-.887-2.224v-1.472h2.289l.35 1.362c.15.57.536.856 1.162.856h2.524c.32 0 .57-.12.77-.34.191-.236.286-.536.286-.882v-1.622c0-.791-.345-1.202-1.056-1.202h-3.175a3.09 3.09 0 0 1-2.228-.906c-.606-.631-.922-1.382-.922-2.263v-2.133c0-.857.316-1.598.922-2.219a3.045 3.045 0 0 1 2.228-.921h3.68c.872 0 1.613.295 2.214.876.606.591.891 1.332.891 2.224v1.331h-2.273l-.34-1.206c-.181-.581-.577-.862-1.157-.862H22.41c-.33 0-.586.12-.781.356-.2.225-.29.516-.29.876v1.252c0 .776.355 1.167 1.07 1.167h3.15c.862 0 1.613.31 2.219.941.626.626.931 1.357.931 2.218v2.514ZM41.69 69.615c0 .866-.32 1.612-.936 2.228a3.09 3.09 0 0 1-2.249.931H34.42v5.448H31.79V63.366h6.715c.866 0 1.622.31 2.248.92.616.612.937 1.353.937 2.209v3.12Zm-3.7-3.851h-3.57v4.607h3.57l.76-.346c.196-.23.29-.516.29-.881V66.98c0-.36-.094-.636-.29-.872l-.76-.345ZM65 78.223l-2.413-5.809h-2.494v5.809H57.46V63.366h6.575c.881 0 1.622.31 2.233.916.611.621.927 1.367.927 2.214v2.588c0 .676-.19 1.287-.556 1.823-.386.54-.866.926-1.457 1.172l2.614 6.144H65Zm-1.462-12.459h-3.445v4.247h3.445l.726-.33c.2-.226.29-.512.29-.872v-1.833c0-.345-.09-.63-.29-.871l-.726-.34ZM79.063 65.761h-3.81V78.22h-2.625V65.76h-3.785v-2.393h10.22v2.393ZM90.968 75.05a3.11 3.11 0 0 1-.911 2.25 3.108 3.108 0 0 1-2.254.92h-3.71c-.881 0-1.623-.3-2.228-.89-.586-.592-.892-1.323-.892-2.224v-1.472h2.294l.34 1.362c.16.57.551.856 1.172.856h2.524c.315 0 .576-.12.776-.34.19-.236.27-.536.27-.882v-1.622c0-.791-.34-1.202-1.046-1.202h-3.165c-.871 0-1.622-.3-2.233-.906-.611-.631-.932-1.382-.932-2.263v-2.133c0-.857.32-1.598.932-2.219.61-.62 1.362-.921 2.233-.921h3.665c.882 0 1.618.295 2.219.876.596.591.901 1.332.901 2.224v1.331h-2.278l-.35-1.206c-.181-.581-.567-.862-1.153-.862H84.65c-.32 0-.591.12-.771.356-.2.225-.29.516-.29.876v1.252c0 .776.355 1.167 1.06 1.167h3.155c.872 0 1.608.31 2.219.941.636.626.946 1.357.946 2.218v2.514ZM50.585 65.761H48.06l-.771.346c-.18.235-.28.52-.28.876v7.611c0 .35.1.631.28.867l.771.37h2.524l.76-.37c.201-.236.301-.516.301-.867v-7.61c0-.356-.1-.642-.3-.877l-.761-.346Zm3.68 9.269c0 .901-.305 1.652-.921 2.268-.631.606-1.362.922-2.254.922h-3.55a3.08 3.08 0 0 1-2.243-.922 3.102 3.102 0 0 1-.931-2.268v-8.542c0-.842.32-1.593.93-2.204.607-.616 1.368-.916 2.244-.916h3.55c.892 0 1.623.3 2.254.906.616.601.921 1.357.921 2.214v8.542Z" fill="#000"/></svg>