<svg width="134" height="134" fill="none" xmlns="http://www.w3.org/2000/svg"><circle cx="67.5" cy="68.5" r="56.5" fill="#fff"/><path d="M116.267 56.216 88.439 76.435l10.629 32.713c.819 2.519-2.065 4.613-4.208 3.057L67.032 91.987l-27.827 20.218c-2.142 1.556-5.026-.538-4.208-3.057l10.63-32.713-27.828-20.219c-2.143-1.556-1.042-4.945 1.606-4.945h34.398l10.629-32.715c.819-2.519 4.383-2.519 5.2 0l10.63 32.715h34.397c2.649 0 3.75 3.389 1.608 4.945ZM66.667 0C29.848 0 0 29.848 0 66.667c0 36.82 29.848 66.666 66.667 66.666 36.818 0 66.666-29.846 66.666-66.666C133.333 29.848 103.485 0 66.667 0Z" fill="#000"/></svg>