<svg width="120" height="21" fill="none" xmlns="http://www.w3.org/2000/svg"><path d="M55.734 16.275h-6.539l-.002-4.834h6.562c1.944 0 2.787.76 2.787 2.486 0 1.292-.528 2.348-2.808 2.348Zm-.582-12.202c2.098 0 2.743.761 2.743 2.028 0 1.265-.56 2.169-2.664 2.169l-6.038.002V4.073h5.96Zm4.983 5.625c1.164-.909 1.83-2.234 1.83-3.836 0-1.599-.649-5.314-6.628-5.314h-9.885v19.237h10.513c4.233 0 6.663-2.137 6.663-5.852 0-1.813-.864-3.262-2.493-4.235Zm44.148-9.15v3.913h6.049v15.324h3.771V4.46H120V.548h-15.717ZM92.439 16.512c-3.66 0-6.53-2.813-6.53-6.404 0-3.592 2.87-6.403 6.53-6.403 3.665 0 6.531 2.811 6.531 6.403 0 3.591-2.866 6.404-6.53 6.404ZM92.44 0c-5.778 0-10.308 4.44-10.308 10.109 0 5.67 4.53 10.107 10.308 10.107 5.782 0 10.312-4.438 10.312-10.107C102.751 4.439 98.221 0 92.439 0ZM67.98.548V19.78h12.983V15.89h-9.217V.549H67.98Zm-31.325 0v10.04c0 2.92-.302 6.013-5.084 6.013-4.785 0-5.125-3.028-5.125-6.012V.549h-3.748v10.278c0 4.59 1.283 9.493 8.873 9.493 7.588 0 8.863-4.973 8.863-9.493V.549h-3.78Zm-23.195 0v7.163H3.768V.544H0v19.243h3.768v-8.14h9.691v8.14h3.742V.548h-3.742Z" fill="#000"/></svg>