<svg xmlns="http://www.w3.org/2000/svg" width="183" height="41" fill="none"><path fill="#000" d="m35.243 17.624-8.436 6.129 3.222 9.916c.248.763-.626 1.398-1.275.927l-8.435-6.129-8.435 6.129c-.65.471-1.524-.164-1.276-.927l3.222-9.916-8.435-6.129c-.65-.471-.316-1.499.487-1.499H16.31L19.53 6.21c.248-.764 1.328-.764 1.576 0l3.222 9.916h10.426c.803 0 1.137 1.028.488 1.5ZM20.208.584C9.048.584 0 9.632 0 20.792 0 31.952 9.047 41 20.208 41c11.16 0 20.208-9.047 20.208-20.208 0-11.16-9.048-20.208-20.208-20.208ZM51.072 27.717h2.769l.858-5.165h2.918c3.545 0 5.784-2.12 6.27-5.06.484-2.926-1.03-5.06-4.546-5.06H53.61l-2.537 15.285Zm4.008-7.441.918-5.53h2.537c2.075 0 2.791 1.112 2.53 2.746-.261 1.62-1.373 2.784-3.44 2.784H55.08ZM63.932 27.717h2.701l1.113-6.74c.253-1.455 1.514-2.485 2.992-2.485.47 0 1.015.075 1.246.157l.419-2.485a5.605 5.605 0 0 0-.963-.075c-1.314 0-2.553.746-3.18 2.075h-.119l.32-1.91h-2.619l-1.91 11.463ZM76.333 27.94c2.679 0 4.716-1.306 5.537-3.298l-2.47-.284c-.537.978-1.493 1.478-2.68 1.478-1.82 0-2.753-.925-2.417-3.075l.007-.037h7.993l.127-.829c.672-4.015-1.448-5.791-4.269-5.791-3.276 0-5.829 2.41-6.41 5.948-.605 3.59 1.134 5.889 4.582 5.889Zm-1.702-7.037c.306-1.373 1.672-2.694 3.224-2.694 1.56 0 2.403 1.134 2.142 2.694h-5.366ZM83.248 27.717h2.71l1.163-6.971c.224-1.403 1.329-2.366 2.493-2.366 1.15 0 1.791.761 1.612 1.948l-1.239 7.389h2.65l1.201-7.15c.202-1.299 1.12-2.187 2.418-2.187 1.097 0 1.851.635 1.635 2.06l-1.224 7.277h2.701l1.284-7.695c.425-2.552-.828-3.918-2.918-3.918-1.672 0-3.09.82-3.799 2.097h-.12c-.216-1.299-1.208-2.097-2.746-2.097-1.537 0-2.813.791-3.507 2.097h-.142l.328-1.948h-2.59l-1.91 11.464ZM101.576 27.717h2.702l1.911-11.464h-2.702l-1.911 11.464Zm3.657-13.106c.859 0 1.62-.657 1.679-1.463.068-.813-.574-1.47-1.432-1.47-.866 0-1.62.657-1.695 1.47-.067.806.59 1.463 1.448 1.463ZM111.576 27.94c2.679 0 4.717-1.306 5.537-3.298l-2.47-.284c-.537.978-1.492 1.478-2.679 1.478-1.821 0-2.754-.925-2.418-3.075l.007-.037h7.993l.127-.829c.672-4.015-1.448-5.791-4.269-5.791-3.276 0-5.828 2.41-6.411 5.948-.604 3.59 1.135 5.889 4.583 5.889Zm-1.702-7.037c.306-1.373 1.672-2.694 3.224-2.694 1.56 0 2.403 1.134 2.142 2.694h-5.366ZM118.484 27.717h2.701l1.112-6.74c.254-1.455 1.515-2.485 2.993-2.485.47 0 1.015.075 1.246.157l.418-2.485a5.594 5.594 0 0 0-.962-.075c-1.314 0-2.553.746-3.18 2.075h-.119l.321-1.91h-2.62l-1.91 11.463ZM141.455 19.283c-.052-1.948-1.426-3.18-4.157-3.18-2.717 0-4.776 1.307-5.127 3.39-.291 1.708.604 2.843 2.731 3.313l1.881.41c1.03.232 1.403.605 1.299 1.217-.12.82-1.135 1.477-2.471 1.47-1.179-.007-1.873-.53-1.933-1.567l-2.657.254c-.007 2.097 1.583 3.35 4.441 3.35 2.821 0 5.045-1.44 5.403-3.56.276-1.686-.649-2.716-2.739-3.186l-1.895-.418c-1.105-.269-1.471-.634-1.359-1.247.12-.82 1.127-1.41 2.299-1.41 1.209 0 1.717.664 1.799 1.433l2.485-.269ZM141.292 32.015h2.701l1.015-6.105h.127c.284.836.97 2.008 2.941 2.008 2.701 0 5.089-2.142 5.709-5.918.634-3.821-1.097-5.896-3.747-5.896-2.022 0-3.074 1.216-3.612 2.045h-.164l.313-1.896h-2.656l-2.627 15.762Zm4.321-10.03c.358-2.224 1.559-3.665 3.306-3.665 1.798 0 2.455 1.53 2.112 3.665-.366 2.15-1.552 3.717-3.329 3.717-1.724 0-2.448-1.493-2.089-3.717ZM159.663 27.94c3.313 0 5.806-2.328 6.388-5.836.582-3.597-1.179-6-4.567-6-3.321 0-5.814 2.336-6.389 5.858-.582 3.575 1.172 5.979 4.568 5.979Zm.216-2.164c-1.813 0-2.41-1.62-2.075-3.687.344-2.134 1.583-3.843 3.463-3.843 1.806 0 2.411 1.642 2.075 3.702-.343 2.142-1.582 3.828-3.463 3.828ZM166.879 27.717h2.701l1.112-6.74c.254-1.455 1.515-2.485 2.993-2.485.47 0 1.015.075 1.246.157l.418-2.485a5.606 5.606 0 0 0-.963-.075c-1.313 0-2.552.746-3.179 2.075h-.119l.321-1.91h-2.62l-1.91 11.463ZM182.957 16.253h-2.269l.455-2.746h-2.701l-.456 2.746h-1.619l-.343 2.09h1.619l-1.052 6.373c-.373 2.15 1 3.21 3.052 3.157a6.316 6.316 0 0 0 1.65-.268l-.12-2.112c-.164.03-.478.104-.806.104-.679 0-1.187-.239-1.015-1.328l.985-5.926h2.269l.351-2.09Z"/></svg>