<svg width="125" height="16" fill="none" xmlns="http://www.w3.org/2000/svg"><path fill-rule="evenodd" clip-rule="evenodd" d="M87.454.232h2.568V13.39h11.135l-1.635 2.57H87.454V.232ZM67.287 15.96 57.788.972c-.584-.973-2.14-.973-2.803.039l-9.421 14.95h3.114l2.843-4.517h6.073l1.597-2.57h-6.074l3.31-5.177 7.747 12.263h3.113ZM73.067.237c-4.34 0-7.196 3.518-7.196 7.86 0 4.34 2.857 7.86 7.197 7.86l10.553-.014 1.652-2.547H73.145c-2.925 0-4.637-2.373-4.637-5.3 0-2.927 1.711-5.3 4.637-5.3h10.803L85.543.23 73.068.237Zm-65.87 2.56h11.135c2.926 0 4.638 2.372 4.638 5.3 0 2.926-1.71 5.299-4.638 5.299H7.198c-2.927 0-4.638-2.373-4.638-5.3 0-2.927 1.711-5.3 4.638-5.3Zm0-2.56C2.858.237 0 3.755 0 8.097c0 4.34 2.857 7.86 7.198 7.86h11.134c4.34 0 7.197-3.52 7.197-7.86 0-4.342-2.857-7.86-7.197-7.86H7.198Zm96.705 9.105c.418 2.326 2.018 4.054 4.516 4.054h12.127l-1.652 2.547-10.553.013c-4.341 0-7.197-3.52-7.197-7.86S104 .236 108.34.236L120.815.23l-1.593 2.567h-10.803c-2.463 0-4.071 1.699-4.517 3.976h15.242l-1.635 2.57h-13.607Zm-63.847.228a4.667 4.667 0 0 0 0-9.333L26.955.23V15.96h2.881V2.797h10.22a2.106 2.106 0 1 1 0 4.212H31.86l9.245 8.933h3.72l-6.619-6.367 1.85-.005ZM123.506.246c.668 0 1.197.528 1.197 1.228 0 .711-.528 1.234-1.197 1.234-.676 0-1.202-.523-1.202-1.234 0-.7.526-1.228 1.202-1.228V0c-.813 0-1.5.625-1.5 1.473 0 .856.688 1.482 1.5 1.482.806 0 1.494-.626 1.494-1.482C125 .625 124.312 0 123.506 0v.246Z" fill="#000"/><path fill-rule="evenodd" clip-rule="evenodd" d="M123.194.844h.353c.179 0 .371.04.371.25 0 .262-.196.279-.416.279h-.309v.219h.298l.45.739h.289l-.485-.75c.25-.032.441-.164.441-.47 0-.336-.2-.484-.601-.484h-.65V2.33h.258V.844h.001Z" fill="#000"/></svg>