<svg width="190" height="190" viewBox="0 0 190 190" fill="none" xmlns="http://www.w3.org/2000/svg">
<path d="M189 95C189 43.1 146.9 1 95 1C43.1 1 1 43.1 1 95C1 146.9 43.1 189 95 189C146.9 189 189 146.9 189 95Z" fill="white" stroke="black" stroke-width="1.09"/>
<path d="M156.9 142.1L155.8 143.3L157.8 145.2L158.9 144.1C159.6 143.6 159.6 142.6 159.1 141.9L159 141.8C158.3 141.2 157.5 141.4 156.9 142.1ZM39.2 147.8C38 149.2 38.1 151.3 39.5 152.5C40.9 153.7 43 153.6 44.2 152.2C45.4 150.9 45.3 148.9 44.1 147.7C42.8 146.4 40.7 146.4 39.4 147.6C39.3 147.7 39.3 147.8 39.2 147.8ZM155.5 139.1C155 138.7 154.3 138.7 153.8 139.2L153.7 139.3L152.6 140.4L154.4 142L155.4 140.9C155.9 140.5 156 139.7 155.5 139.1C155.4 139.2 155.5 139.2 155.5 139.1ZM178.4 95.0004C178.8 94.4004 179 93.8004 179 93.1004C179.1 91.2004 177.6 89.7004 175.7 89.6004C173.8 89.5004 172.3 91.0004 172.2 92.9004C172.1 94.8004 173.6 96.3004 175.4 96.4004C175.5 96.4004 175.7 96.4004 175.8 96.4004L173.7 100H175.4L178.4 95.0004ZM169.8 96.9004C169.8 95.8004 169.2 94.8004 168.3 94.2004C168.8 93.7004 169.1 93.1004 169.1 92.4004C169.1 90.9004 167.9 89.8004 166.5 89.8004C165 89.8004 163.9 91.0004 163.9 92.4004C163.9 93.1004 164.2 93.7004 164.6 94.2004C163.6 94.7004 163.1 95.8004 163.1 96.9004C163.2 98.8004 164.8 100.2 166.7 100.1C168.3 100 169.7 98.6004 169.8 96.9004ZM160.4 140.3C159.5 139.5 158.2 139.4 157.2 140.1C157.6 139.1 157.4 138 156.6 137.3C155.6 136.3 154 136.4 152.5 138L149.9 140.8L157.6 148L160.3 145.1C161.6 143.9 161.7 141.8 160.5 140.4C160.5 140.3 160.5 140.3 160.4 140.3ZM151.3 149.8L146.8 144.7L145.2 146.1L149.5 151.1C150.3 151.8 150.4 153.1 149.7 153.9C149.6 154 149.5 154.1 149.4 154.2C148.6 155 147.4 155 146.6 154.2C146.5 154.1 146.4 154 146.3 153.9L142 148.9L140.4 150.3L144.9 155.4C146.6 157.1 149.3 157.1 151 155.4C152.4 153.9 152.6 151.5 151.3 149.8ZM143.6 161L142.6 159.5L139.1 161.9L134.2 154.6L132.4 155.8L138.3 164.6L143.6 161ZM132.5 164.4L130.5 164.3C130.6 165.7 129.9 167.1 128.6 167.6C127 168.3 125.1 167.7 124.2 165.6C123.3 164.1 123.9 162.1 125.4 161.3C125.5 161.2 125.7 161.1 125.8 161.1C126.8 160.6 127.9 160.7 128.9 161.3L129.7 159.4C128.3 158.7 126.6 158.6 125.1 159.3C122.4 160.4 121 163.6 122.2 166.3C122.2 166.4 122.3 166.5 122.3 166.6C123.3 169.3 126.3 170.6 129 169.6C129.1 169.6 129.2 169.5 129.3 169.5C131.3 168.6 132.5 166.6 132.5 164.4ZM114.9 174.7L114.5 172.9L110.3 173.7L108.6 165.1L106.5 165.5L108.6 175.9L114.9 174.7ZM103.7 176.7L103.6 174.9L99.4 175.1L98.9 166.3L96.8 166.4L97.4 177C97.4 177.1 103.7 176.7 103.7 176.7ZM156.4 95.0004C156.4 91.4004 156.1 87.8004 155.5 84.2004C155.3 83.2004 155 82.0004 155 82.0004L158.5 69.8004C159.3 67.2004 159.6 66.5004 159.1 65.8004C158.9 65.5004 158.6 65.1004 157.4 64.8004L146.9 62.2004L146.6 61.6004C128.2 33.1004 90.2 25.0004 61.8 43.4004C54.4 48.2004 48.2 54.4004 43.5 61.8004L43.3 62.2004L32.6 64.9004C31.4 65.2004 31.1 65.7004 30.9 65.9004C30.5 66.6004 30.8 67.3004 31.5 69.9004L35 82.1004C35 82.1004 34.7 83.2004 34.5 84.2004C33.9 87.8004 33.5 91.4004 33.5 95.1004C33.1 129 60.2 156.8 94.1 157.3C128 157.8 155.8 130.6 156.3 96.7004C156.4 96.1004 156.4 95.6004 156.4 95.0004ZM92.5 177.3L89.5 166.3L87.5 166.1L82.3 176.2L84.6 176.4L85.7 174.1L89.6 174.5L90.2 177L92.5 177.3ZM77.7 164.5L74 163.5L71.2 173.7L75 174.8C76.7 175.4 78.6 174.5 79.3 172.8C79.3 172.7 79.3 172.7 79.3 172.6C79.6 171.4 79.1 170.2 78 169.7C79.1 169.6 80 168.9 80.2 167.9C80.6 166.5 79.8 165.1 77.7 164.5ZM70 162.3L62 158.7L61.2 160.4L64.2 161.8L60.6 169.8L62.5 170.7L66.2 162.7L69.2 164.1L70 162.3ZM55.4 154.3C52.8 152.6 49.4 153.3 47.7 155.9C46 158.5 46.7 161.9 49.3 163.6C51.9 165.3 55.3 164.6 57 162L57.1 161.9C58.8 159.4 58.1 156.1 55.7 154.4C55.5 154.3 55.5 154.3 55.4 154.3ZM45.4 154.1C47.5 152 47.5 148.5 45.4 146.4C43.3 144.3 39.8 144.3 37.7 146.4C35.6 148.5 35.6 151.9 37.6 154.1C39.6 156.3 43.1 156.4 45.2 154.3C45.3 154.2 45.3 154.2 45.4 154.1ZM33.9 139.9L36 138.4L38.5 141.9L40 140.8L36.2 135.6L27.7 141.9L29 143.6L32.5 141L34.5 143.8L36 142.7C35.9 142.7 33.9 139.9 33.9 139.9ZM24.9 96.9004C24.9 95.8004 24.3 94.8004 23.4 94.2004C23.9 93.7004 24.2 93.1004 24.2 92.4004C24.1 90.9004 22.9 89.8004 21.4 89.9004C20.1 90.0004 19 91.0004 18.9 92.4004C18.9 93.1004 19.1 93.7004 19.6 94.2004C18.6 94.7004 18.1 95.8004 18.1 96.9004C18.1 98.7004 19.6 100.2 21.4 100.1H21.5C23.3 100.2 24.8 98.8004 24.9 97.0004C24.9 97.0004 24.9 96.9004 24.9 96.9004ZM14.7 89.9004L13.1 90.9004V100.1H14.7V89.9004ZM28.7 46.0004L39.5 55.0004L42.9 51.0004C44.6 49.2004 44.5 46.4004 42.8 44.8004C42.7 44.7004 42.7 44.7004 42.6 44.6004C41.4 43.5004 39.5 43.5004 38.3 44.6004C38.8 43.3004 38.4 41.8004 37.4 40.9004C36 39.7004 33.8 39.9004 32 42.1004L28.7 46.0004ZM40.8 33.1004L49.6 44.1004L51.8 42.3004L48.3 38.0004L49.3 37.2004L55.2 39.6004L57.9 37.4004L51.3 34.8004C52.1 33.3004 52 31.5004 50.9 30.2004C49.5 28.4004 47.1 28.1004 44.9 29.8004L40.8 33.1004ZM55.8 22.6004L61.9 35.3004L69.7 31.5004L68.7 29.3004L63.4 31.8004L61.9 28.7004L66 26.7004L65 24.5004L60.9 26.5004L59.4 23.4004L64.5 20.9004L63.5 18.7004L55.8 22.4004V22.4004V22.6004ZM71.4 16.2004L74.5 29.9004L77.3 29.3004L75.3 20.7004L83.7 27.9004L86.3 27.3004L83.2 13.6004L80.4 14.2004L82.4 22.9004L74 15.7004L71.4 16.2004ZM89.3 15.2004H93.7L93.6 26.9004H96.4L96.5 15.2004H100.9V12.8004L89.3 12.7004V15.2004V15.2004ZM104.8 27.5004L107.6 28.0004L108.7 22.3004L113.2 23.2004L113.7 20.8004L109.2 19.9004L109.8 16.5004L115.4 17.6004L115.9 15.2004L107.5 13.6004C107.4 13.7004 104.8 27.5004 104.8 27.5004ZM121.7 33.0004C125.3 34.6004 129.6 32.9004 131.1 29.3004C131.1 29.2004 131.2 29.1004 131.2 29.0004C132.7 25.3004 131 21.1004 127.3 19.5004C123.6 17.9004 119.4 19.7004 117.8 23.4004C116.2 27.0004 117.8 31.2004 121.4 32.9004C121.5 32.9004 121.6 32.9004 121.7 33.0004ZM140 26.3004L131.5 37.5004L133.7 39.2004L137.1 34.8004L138.1 35.6004L137.2 41.9004L139.9 44.0004L140.8 36.9004C142.4 37.3004 144.2 36.8004 145.2 35.4004C146.6 33.6004 146.4 31.2004 144.1 29.5004L140 26.3004ZM153.6 37.5004L143.6 47.4004L146.9 50.7004C149.5 53.6004 154 53.9004 156.9 51.3004C157 51.2004 157.1 51.1004 157.2 51.0004C159.9 48.4004 160 44.1004 157.4 41.4004C157.3 41.3004 157.2 41.2004 157.1 41.1004L153.6 37.5004ZM185.6 95.0004C185.6 145 145 185.6 95 185.6C45 185.6 4.40002 145 4.40002 95.0004C4.40002 45.0004 44.9 4.40039 95 4.40039C145.1 4.50039 185.6 45.0004 185.6 95.0004ZM122.7 30.5004C125 31.4004 127.5 30.4004 128.5 28.1004C128.5 28.0004 128.6 27.9004 128.6 27.8004C129.7 25.6004 128.9 23.0004 126.7 21.8004C124.5 20.7004 121.9 21.5004 120.7 23.7004C120.6 23.9004 120.5 24.1004 120.4 24.3004C119.3 26.5004 120.2 29.1004 122.3 30.2004C122.5 30.5004 122.6 30.5004 122.7 30.5004ZM142.9 33.8004C143.5 33.0004 143.4 31.9004 142.6 31.3004C142.5 31.3004 142.5 31.2004 142.4 31.2004L140.8 30.0004L138.6 32.9004L140.2 34.0004C141 34.7004 142.2 34.6004 142.9 33.9004C142.8 33.9004 142.9 33.8004 142.9 33.8004ZM175.6 91.2004C174.6 91.2004 173.8 91.9004 173.8 92.9004V93.0004C173.8 94.0004 174.6 94.8004 175.6 94.8004C176.6 94.8004 177.4 94.0004 177.4 93.0004C177.4 92.0004 176.6 91.2004 175.6 91.2004ZM166.4 95.0004C165.4 95.0004 164.6 95.9004 164.6 96.9004C164.6 97.9004 165.5 98.7004 166.5 98.7004C167.5 98.7004 168.3 97.9004 168.3 96.9004C168.3 95.9004 167.6 95.1004 166.6 95.1004C166.5 95.0004 166.5 95.0004 166.4 95.0004ZM166.4 93.6004C167.1 93.6004 167.6 93.1004 167.6 92.5004C167.6 91.8004 167.1 91.3004 166.5 91.3004C165.8 91.3004 165.3 91.8004 165.3 92.4004C165.3 92.4004 165.3 92.4004 165.3 92.5004C165.2 93.1004 165.7 93.6004 166.4 93.6004ZM155 49.1004C156.8 47.4004 157.3 44.8004 155.3 42.8004L153.8 41.3004L147.2 47.8004L148.7 49.3004C150.7 51.3004 153.3 50.8004 155 49.1004ZM48.8 32.1004C48.2 31.3004 47.1 31.2004 46.3 31.8004L46.2 31.9004L44.6 33.2004L46.9 36.1004L48.4 34.9004C49.3 34.3004 49.5 33.1004 48.9 32.3004C48.8 32.2004 48.8 32.2004 48.8 32.1004ZM21.5 95.0004C20.5 95.0004 19.7 95.9004 19.7 96.8004C19.7 97.8004 20.6 98.6004 21.5 98.6004C22.5 98.6004 23.3 97.8004 23.3 96.8004C23.3 95.8004 22.5 95.0004 21.6 95.0004H21.5ZM76 170.3L74.4 169.9L73.6 172.6L75.1 173C75.9 173.3 76.8 172.9 77.1 172.1C77.5 171.1 76.9 170.5 76 170.3ZM54.4 155.9C52.8 154.7 50.6 155 49.4 156.6C48.2 158.2 48.5 160.4 50.1 161.6C51.7 162.8 53.9 162.5 55.1 160.9C55.2 160.8 55.2 160.8 55.2 160.7C56.3 159.2 56 157.1 54.5 156C54.5 156 54.5 155.9 54.4 155.9ZM21.5 93.6004C22.1 93.5004 22.6 93.0004 22.6 92.3004C22.5 91.7004 22.1 91.3004 21.5 91.2004C20.9 91.3004 20.4 91.8004 20.4 92.5004C20.5 93.1004 20.9 93.6004 21.5 93.6004ZM33.7 43.9004L32.4 45.5004L34.8 47.5004L36.1 46.0004C36.7 45.3004 36.7 44.3004 36.1 43.6004L36 43.5004C35.3 43.0004 34.4 43.1004 33.8 43.7004C33.8 43.9004 33.8 43.9004 33.7 43.9004ZM77.1 166.2L75.6 165.8L74.9 168.1L76.3 168.5C77 168.7 77.7 168.4 77.9 167.7V167.6C78.1 167 77.7 166.3 77.1 166.2C77.1 166.2 77.2 166.2 77.1 166.2ZM86.7 172.2L89.1 172.4L88.2 169L86.7 172.2ZM40.8 49.8004L39.5 51.4004L36.7 49.0004L38.1 47.3004C38.9 46.4004 39.9 46.0004 40.9 46.8004C41.7 47.5004 41.8 48.8004 41.1 49.6004C40.9 49.7004 40.9 49.8004 40.8 49.8004Z" fill="#E30613"/>
<path d="M48.1 63.2001C65.7 37.2001 101 30.4001 126.9 48.0001C133 52.1001 138.2 57.4001 142.3 63.5001L144.5 62.6001C126.7 35.3001 90.1 27.7001 62.8 45.6001C56.1 50.0001 50.4 55.7001 45.9 62.4001L48.1 63.2001ZM36.9 84.4001C31 116.5 52.2 147.3 84.3 153.2C116.4 159.1 147.2 137.9 153.1 105.8C153.8 102.3 154.1 98.6001 154.1 95.0001C154.1 91.4001 153.8 87.8001 153.1 84.3001H150.8C151.5 87.8001 151.8 91.4001 151.8 95.0001C151.8 126.4 126.4 151.8 95.1 151.9C63.8 152 38.3 126.5 38.2 95.2001C38.2 91.6001 38.5 88.0001 39.2 84.4001H36.9Z" fill="#140E0C"/>
<path d="M52.7999 97.9V127.9L53.7999 127.7V97.9H52.7999ZM53.7999 65.7V58.7L52.7999 59.7V65.3L53.7999 65.7ZM86.2999 54.4V61.9L87.2999 61.4V56.1L86.2999 54.4ZM86.2999 134V149.5L87.2999 149.7V134.9L86.2999 134ZM87.2999 49.8V40.5L86.2999 40.7V49.2L87.2999 49.8ZM70.5999 97V94.8L69.5999 95.5V99.1L70.5999 97ZM70.5999 72.6V68.1L69.5999 66.9V72.1L70.5999 72.6ZM69.5999 117.3V143.7L70.5999 144.3V115.6L69.5999 117.3ZM70.5999 60V45.3L69.5999 45.9V59L70.5999 60ZM136.8 98V127.7L137.8 127.9V97.9L136.8 98ZM137.9 65.3V59.7L136.9 58.7V65.6L137.9 65.3ZM103.3 56V61.3L104.3 61.8V54.3L103.3 56ZM103.3 134.8V149.7L104.3 149.5V134L103.3 134.8ZM104.3 49.2V40.7L103.3 40.5V49.8L104.3 49.2ZM121 99.1V95.5L120 94.8V97L121 99.1ZM121 72.1V66.8L120 68V72.5L121 72.1ZM120 115.6V144.3L121 143.7V117.3L120 115.6ZM120 60V45.3L121 45.9V59L120 60Z" fill="#E8E4D9"/>
<path d="M111.6 77.7002L145.7 63.9002L139.8 73.3002L111.6 79.8002V77.7002ZM111.6 81.4002V82.9002H152.7L139.4 75.7002L111.6 81.4002ZM33.6999 69.3002L36.8999 80.6002L48.4999 74.5002C48.4999 74.5002 42.3999 64.4002 42.3999 64.5002L35.2999 66.3002C33.8999 66.7002 33.4999 66.9002 33.2999 67.2002C33.0999 67.5002 33.1999 67.9002 33.6999 69.3002ZM50.5999 75.6002L37.3999 82.8002H78.4999V81.3002L50.5999 75.6002ZM45.0999 87.2002C45.0999 87.6002 45.3999 87.9002 45.9999 88.5002L53.6999 96.1002L59.9 90.2002L48.2999 85.3002L45.9999 86.5002C45.2999 86.8002 45.0999 87.0002 45.0999 87.2002ZM78.5999 77.7002L44.5999 63.9002L50.4999 73.3002L78.7 79.8002L78.5999 77.7002ZM50.9 84.4002L61.5999 88.7002L78.7 85.9002V84.4002H50.9ZM62.4999 90.5002C62.6999 90.4002 55.6999 96.8002 55.6999 96.8002L60.7999 97.1002C61.5999 97.2002 62.4999 97.1002 63.2999 97.0002C64.1999 96.7002 64.9999 96.3002 65.8999 95.8002C65.8999 95.8002 78.7999 88.9002 78.7999 88.8002V87.3002C78.6999 87.3002 62.2999 90.6002 62.4999 90.5002ZM111.6 87.3002V88.8002C111.6 88.9002 124.5 95.8002 124.5 95.8002C125.3 96.3002 126.2 96.7002 127 97.1002C127.8 97.2002 128.7 97.3002 129.5 97.2002L134.6 96.9002C134.6 96.9002 127.6 90.5002 127.7 90.6002C127.8 90.7002 111.6 87.3002 111.6 87.3002ZM144.3 86.5002L142 85.3002L130.4 90.2002L136.6 96.1002L144.3 88.5002C144.8 87.9002 145.2 87.6002 145.2 87.2002C145.2 86.8002 144.9 86.8002 144.3 86.5002ZM125.2 114.5C125 114.2 119.1 98.5002 119.1 98.5002C118.1 96.0002 117.2 95.6002 115.4 94.5002L111.3 91.9002L111.1 92.1002L115.8 98.5002V107.8L131 127.2C133.1 129.8 133.1 130.6 136.2 130.6L138.1 129.7L134.6 129.1C134.6 129.1 125.4 114.8 125.2 114.5ZM65.0999 114.5C64.8999 114.8 55.7999 129.1 55.7999 129.1L52.2999 129.7L54.1999 130.6C57.1999 130.6 57.3 129.7 59.4 127.2L74.5999 107.9V98.6002L79.2999 92.2002L79.0999 92.0002L74.9999 94.6002C73.1999 95.6002 72.2999 96.0002 71.2999 98.6002C71.1999 98.5002 65.1999 114.2 65.0999 114.5ZM156.6 67.2002C156.4 66.9002 156 66.7002 154.6 66.3002L147.5 64.5002C147.5 64.4002 141.4 74.5002 141.4 74.5002L153 80.6002L156.3 69.3002C156.7 67.8002 156.8 67.5002 156.6 67.2002ZM111.5 84.4002V85.9002L128.6 88.7002L139.3 84.4002H111.5ZM111.1 75.3002L122 63.5002L129 55.0002L129.4 52.7002L128.7 52.0002L127.8 54.6002L109.6 71.2002C109.6 71.4002 111.1 75.2002 111.1 75.3002ZM68.0999 63.4002L78.9999 75.2002C78.9999 75.2002 80.4999 71.3002 80.5999 71.2002L62.4 54.7002L61.4999 52.1002L60.7999 52.8002L61.1999 55.1002L68.0999 63.4002ZM79.4999 47.7002L81.0999 49.6002L86.2 52.4002L91.2999 59.8002L89.8999 61.8002C89.8999 61.8002 86.9999 62.8002 86.3999 63.5002C85.5999 64.5002 85.4999 68.2002 85.4999 68.2002L83.2 69.5002L80.4999 77.5002V90.1002L82.3999 91.4002L76.7 99.4002V118.7L82.9999 129.4L91.7 136L95.0999 140.2L98.3999 136L107.1 129.4L113.5 118.6V99.3002L107.9 91.3002L109.7 90.1002V77.5002L107 69.5002L104.7 68.2002C104.7 68.2002 104.6 64.5002 103.8 63.5002C103.2 62.7002 100.3 61.8002 100.3 61.8002L98.8999 59.9002L104.1 52.4002L109.2 49.6002L110.8 47.7002L108.3 48.5002L102.9 51.5002L97.7 58.8002L95.0999 58.1002L92.3999 58.7002L87.2 51.4002L81.7999 48.4002L79.4999 47.7002ZM89.8999 62.6002L90.7 66.2002L87.2 67.6002L89.8999 62.6002ZM100.3 62.6002L103 67.6002L99.4999 66.2002L100.3 62.6002ZM94.9999 76.8002L105.5 81.4002L102 89.3002V83.1002L94.9999 79.5002L84.9999 80.6002V80.3002L94.9999 76.8002ZM82.4999 112.6L89.2999 115.1H101.1L107.9 112.7L108 112.9L101.8 117.6H88.7L82.5999 112.9L82.4999 112.6Z" fill="#140E0C"/>
<path d="M109.7 121.5L101.1 124.5H89.1L80.6 121.5L83.6 126.7L90.7 129.3L85.7 129.2L92.4 134.3H97.6L104.3 129.2L99.3 129.3L106.4 126.7L109.7 121.5ZM82.4 77.3001L89.6 73.5001H100.7L107.9 77.3001L107.1 75.1001L101.9 70.8001L106.5 72.4001L106 70.8001C106 70.8001 101 68.4001 101 68.1001H89.3C89.2 68.3001 84.3 70.8001 84.3 70.8001L83.8 72.4001L88.4 70.8001L83.2 75.1001L82.4 77.3001ZM111.4 100L101.3 101.2L109 97.0001L106 92.8001L101.6 95.7001H88.7L84.5 92.9001L81.5 97.1001L89.1 101.3L79 100.1V105.5L85.5 107.9H104.9L111.4 105.5V100Z" fill="#FBB800"/>
</svg>
