<?xml version="1.0" encoding="UTF-8" standalone="no"?>
<svg
   xmlns:dc="http://purl.org/dc/elements/1.1/"
   xmlns:cc="http://creativecommons.org/ns#"
   xmlns:rdf="http://www.w3.org/1999/02/22-rdf-syntax-ns#"
   xmlns:svg="http://www.w3.org/2000/svg"
   xmlns="http://www.w3.org/2000/svg"
   xmlns:sodipodi="http://sodipodi.sourceforge.net/DTD/sodipodi-0.dtd"
   xmlns:inkscape="http://www.inkscape.org/namespaces/inkscape"
   version="1.1"
   id="svg2"
   xml:space="preserve"
   width="1307.8533"
   height="1517.1067"
   viewBox="0 0 1307.8533 1517.1067"
   sodipodi:docname="Burnley Football Club.eps"><metadata
     id="metadata8"><rdf:RDF><cc:Work
         rdf:about=""><dc:format>image/svg+xml</dc:format><dc:type
           rdf:resource="http://purl.org/dc/dcmitype/StillImage" /></cc:Work></rdf:RDF></metadata><defs
     id="defs6" /><sodipodi:namedview
     pagecolor="#ffffff"
     bordercolor="#666666"
     borderopacity="1"
     objecttolerance="10"
     gridtolerance="10"
     guidetolerance="10"
     inkscape:pageopacity="0"
     inkscape:pageshadow="2"
     inkscape:window-width="640"
     inkscape:window-height="480"
     id="namedview4" /><g
     id="g10"
     inkscape:groupmode="layer"
     inkscape:label="ink_ext_XXXXXX"
     transform="matrix(1.3333333,0,0,-1.3333333,0,1517.1067)"><g
       id="g12"
       transform="scale(0.1)"><path
         d="M 0,11378.3 H 9808.9 V 5208.27 C 9729.27,4516.81 9529.16,3838.14 9208.93,3219.5 8938.79,2693.15 8583.48,2211.95 8169.54,1789.8 7601.78,1215.4 6929.58,746.402 6200.83,399.5 5917.19,265.398 5624.55,148.398 5321.74,65.1992 5206.44,33.6992 5088.87,10.1992 4969.76,0 H 4933.4 C 4626.34,75.1016 4326.65,178.5 4033.42,295.898 3281.37,600.898 2578.13,1028.1 1966.51,1561.9 1367.02,2085.93 852.563,2715.55 500.945,3432.17 198.488,4041.59 25.5078,4714.83 0,5394.99 v 5983.31 0"
         style="fill:#f3ef14;fill-opacity:1;fill-rule:nonzero;stroke:none"
         id="path14" /><path
         d="m 407.012,10976.5 5.883,-6.4 c 3.007,-1841.61 -0.34,-3683.38 1.734,-5525.14 -15.813,10.38 -6.121,32.65 -8.883,47.99 1.731,1827.81 -0.808,3655.73 1.266,5483.55 v 0"
         style="fill:#e2ed50;fill-opacity:1;fill-rule:nonzero;stroke:none"
         id="path16" /><path
         d="m 412.895,10970.1 c 31.503,3 63.238,2 94.972,2 2873.313,0 5746.633,0 8619.953,0 89.43,1.3 178.98,-2.8 268.41,2.1 -3.69,-1912.64 0.57,-3825.37 -2.19,-5738.01 C 9307.6,4453.56 9040.92,3690.78 8617.17,3026.77 8283.89,2501.6 7857.04,2038.62 7374.45,1647.41 6928.66,1286.8 6436.94,983.602 5916.03,744.301 5627.42,614.102 5331.31,495.699 5021.92,425.102 c -32.99,-7.403 -67.75,-14.5 -100.74,-3.403 C 4132.08,642.301 3382.46,1003.3 2718.1,1482.86 2038.98,1973.88 1445.94,2594.03 1027.05,3322.54 656.16,3966.46 429.512,4699.83 414.629,5444.96 c -2.074,1841.76 1.273,3683.53 -1.734,5525.14 v 0"
         style="fill:#97d6f5;fill-opacity:1;fill-rule:nonzero;stroke:none"
         id="path18" /><path
         d="m 9396.23,10974.2 c 6.24,-10.2 8.55,-21.6 6.93,-34.1 -1.62,-1898.98 0.69,-3798.09 -1.16,-5696.98 l -7.96,-6.93 c 2.76,1912.64 -1.5,3825.37 2.19,5738.01 v 0"
         style="fill:#e2ed50;fill-opacity:1;fill-rule:nonzero;stroke:none"
         id="path20" /><path
         d="m 4690.96,10737.1 c 41.43,44.8 92.32,80.8 147.14,107.5 l 6.57,-28.1 c -4.38,-0.1 -12.92,-0.1 -17.19,-0.1 l -10.97,-0.3 c -31.04,-17.2 -58.39,-39.8 -86.08,-61.6 -14.2,-9.6 -27.7,-21.1 -34.5,-37.2 -42.13,-63.8 -51.71,-142.3 -51.36,-217 3.35,-2.8 10.04,-8.6 13.5,-11.6 l 1.96,-1.6 c -7.73,-3.8 -23.19,-11.3 -30.81,-15 0.36,8.1 1.27,24.4 1.74,32.5 -1.16,80.6 9.23,166.9 60,232.5 v 0"
         style="fill:#161821;fill-opacity:1;fill-rule:nonzero;stroke:none"
         id="path22" /><path
         d="m 4730.43,10754.5 c 27.69,21.8 55.04,44.4 86.08,61.6 l 10.97,0.3 c -1.73,-32.1 5.31,-64.6 -1.38,-96.2 l -1.97,-6.4 c -6.11,-24.5 -11.2,-50.2 -28.16,-70 -2.65,-2.4 -7.96,-7.4 -10.73,-9.8 8.19,-4.1 24.35,-12.1 32.43,-16.2 -6.58,-4.4 -19.97,-12.9 -26.54,-17.2 -28.62,10.6 -55.74,-15.6 -43.27,-44.3 -11.55,-14.6 -21.82,-30.7 -37.05,-41.9 -17.2,-9.1 -34.5,-18 -51.81,-26.4 l -0.93,0.7 c -3.46,3 -10.15,8.8 -13.5,11.6 -0.35,74.7 9.23,153.2 51.36,217 23.19,-6.5 41.42,14.9 34.5,37.2 v 0"
         style="fill:#f2ee14;fill-opacity:1;fill-rule:nonzero;stroke:none"
         id="path24" /><path
         d="m 4834.75,10807.3 c 12.92,-8.1 20.3,-65.5 0.34,-59.1 -3.92,19.8 -4.04,39.5 -0.34,59.1 v 0"
         style="fill:#272324;fill-opacity:1;fill-rule:nonzero;stroke:none"
         id="path26" /><path
         d="m 4695.93,10717.3 c 6.8,16.1 20.3,27.6 34.5,37.2 6.92,-22.3 -11.31,-43.7 -34.5,-37.2 v 0"
         style="fill:#fbc44c;fill-opacity:1;fill-rule:nonzero;stroke:none"
         id="path28" /><path
         d="m 4828.64,10668.6 c 68.77,33.9 143.44,53.1 219.25,63.4 -14.55,-26.7 -48.58,-31.1 -72.47,-46.3 -77.09,-41.6 -166.64,-73.2 -220.42,-145.8 78.48,30.5 160.76,84.3 248.23,57.3 57.7,-21.8 115.74,-68.1 125.56,-132.4 15.69,-103.4 -48.24,-193.9 -67.75,-292 l -13.84,-8.4 c 1.5,10.4 4.38,31.2 5.88,41.6 20.09,75.6 61.62,146.6 64.17,226 2.76,72.6 -58.63,128.8 -122.09,151.8 -73.98,20.9 -143.1,-22.1 -209.92,-47.2 -1.38,2.9 -4.16,8.5 -5.54,11.4 -23.08,-11.2 -46.27,-21.8 -68.89,-33.6 15.23,11.2 25.5,27.3 37.05,41.9 14.53,14.7 29.07,29.2 43.27,44.3 6.57,4.3 19.96,12.8 26.54,17.2 47.19,30.3 97.86,54.1 148.4,78 -62.43,3.8 -111.71,-44.3 -170.1,-52 16.96,19.8 22.05,45.5 28.16,70 l 1.97,6.4 c 4.03,2.1 12,6.2 16.03,8.3 -3.35,-20.2 -8.54,-40.1 -13.49,-59.9 v 0"
         style="fill:#161821;fill-opacity:1;fill-rule:nonzero;stroke:none"
         id="path30" /><path
         d="m 4795.97,10643.8 c 58.39,7.7 107.67,55.8 170.1,52 -50.54,-23.9 -101.21,-47.7 -148.4,-78 -8.08,4.1 -24.24,12.1 -32.43,16.2 2.77,2.4 8.08,7.4 10.73,9.8 v 0"
         style="fill:#fabf3a;fill-opacity:1;fill-rule:nonzero;stroke:none"
         id="path32" /><path
         d="m 4747.86,10556.3 c -12.47,28.7 14.65,54.9 43.27,44.3 -14.2,-15.1 -28.74,-29.6 -43.27,-44.3 v 0"
         style="fill:#d5d318;fill-opacity:1;fill-rule:nonzero;stroke:none"
         id="path34" /><path
         d="m 4785.24,10536.6 c 66.82,25.1 135.94,68.1 209.92,47.2 63.46,-23 124.85,-79.2 122.09,-151.8 -2.55,-79.4 -44.08,-150.4 -64.17,-226 -4.74,-14.2 -7.38,-29.1 -9,-44 -5.66,-48 -7.96,-96.4 -8.78,-144.7 24.58,-5.4 49.06,-12.1 72.48,-21.59 l 5.78,1.27 c 4.72,-0.12 14.07,-0.23 18.69,-0.23 86.43,-25.74 153.36,-89.21 223.98,-142.06 -6.22,-29.31 19.29,-49.28 47.1,-43.16 2.76,-3 8.41,-9.23 11.29,-12.34 -7.73,-27.58 12.93,-53.09 41.9,-46.39 13.27,-18.82 26.42,-37.86 40.39,-56.21 -11.55,-22.15 10.72,-46.27 33.7,-35.31 13.84,-13.61 28.72,-26.19 44.3,-37.85 -6.57,-12.69 -13.26,-35.89 2.43,-44.42 35.2,-23.21 75,-38.55 115.99,-48.36 0.32,-5.54 1.14,-16.74 1.48,-22.28 -5.77,-5.65 -17.42,-16.95 -23.19,-22.61 l 3.34,-3.81 1.05,-3.46 c -5.09,-4.04 -15.12,-12.23 -20.09,-16.27 -15.59,2.65 -30.8,5.77 -45.8,10.16 -15.93,7.96 -33.83,11.19 -51.13,7.04 -10.38,6.22 -20.88,12.22 -31.39,17.99 -5.88,2.88 -17.67,8.66 -23.43,11.54 l 1.38,-9.34 1.74,-10.5 2.78,-17.31 c -15.23,-1.28 -29.78,-4.62 -43.86,-10.16 -55.74,-15.23 -107.54,-39.35 -157.64,-67.74 -103.16,5.66 -194.44,61.51 -275.8,120.82 -58.61,9.58 -134.09,-17.19 -176.67,37.28 -56.21,71.78 -114.48,147.71 -131.91,239.45 -0.57,37.05 0,74.43 4.51,111.24 l 2.77,9.47 c 4.26,13.27 5.99,27.12 8.65,40.61 13.39,77.63 80.55,128.43 111.13,198.53 32.08,67.7 77.66,146.4 41.89,221.6 4.85,23.8 -14.43,42.2 -37.62,33.9 -6.46,3.3 -19.28,10.1 -25.62,13.6 -21.81,35.7 -36.47,75.1 -44.66,116.2 v 0"
         style="fill:#f2ee13;fill-opacity:1;fill-rule:nonzero;stroke:none"
         id="path36" /><path
         d="m 4779.7,10548 c 1.38,-2.9 4.16,-8.5 5.54,-11.4 8.19,-41.1 22.85,-80.5 44.66,-116.2 0,-4.1 0.12,-12 0.12,-16 -44.2,28.6 -97.63,44.6 -148.64,22.8 -5.42,-1.6 -16.15,-4.6 -21.46,-6.3 -6.35,-1.9 -18.93,-5.9 -25.27,-7.9 -13.62,5.2 -27.01,10.5 -39.46,17.8 30.91,11 26.3,48.4 35.77,73.8 -0.47,-8.1 -1.38,-24.4 -1.74,-32.5 7.62,3.7 23.08,11.2 30.81,15 l -1.96,1.6 0.93,-0.7 c 17.31,8.4 34.61,17.3 51.81,26.4 22.62,11.8 45.81,22.4 68.89,33.6 v 0"
         style="fill:#641135;fill-opacity:1;fill-rule:nonzero;stroke:none"
         id="path38" /><path
         d="m 4888.87,10545.9 c 21,5.7 44.08,13.1 65.09,2.3 l 16.03,-9.4 c -21.58,-21.4 -51.34,-15.3 -75.12,-3.1 l -6,10.2 v 0"
         style="fill:#261f15;fill-opacity:1;fill-rule:nonzero;stroke:none"
         id="path40" /><path
         d="m 4953.96,10548.2 c 5.88,-0.3 17.42,-1 23.19,-1.3 -9.58,-34.8 -63.35,-40.7 -82.28,-11.2 23.78,-12.2 53.54,-18.3 75.12,3.1 l -16.03,9.4 v 0"
         style="fill:#a19b20;fill-opacity:1;fill-rule:nonzero;stroke:none"
         id="path42" /><path
         d="m 4659.92,10420.9 c 5.31,1.7 16.04,4.7 21.46,6.3 -3.69,-10.1 -7.38,-20.1 -11.08,-30.1 10.74,-35.3 33,-67.3 35.78,-104.8 -1.5,-33.8 -9.24,-68.9 -28.39,-97.4 -3.92,-11 -22.74,-18.7 -28.96,-6.2 -8.08,31.3 -8.2,64 -13.97,95.7 -21,-20.2 -26.43,-49.7 -39.47,-74.7 -21.92,-42.5 -57.7,-75.5 -94.5,-105.1 6.34,67.2 8.76,136.8 35.54,199.6 13.27,32.7 49.97,52.9 54.23,89.4 7.62,3.2 20.43,19.5 27.24,7.2 -4.84,-11.2 -9.81,-22.4 -14.77,-33.5 -14.89,-9 -24.35,-23.5 -32.54,-38.3 -41.44,-53.1 -42.7,-123.3 -51.82,-187.1 44.54,35.3 73.74,86 88.74,140.2 12.92,9.4 26.89,17.2 40.85,25.3 6,-35.3 7.27,-71.2 12.35,-106.6 42.12,49.6 34.51,119.6 0.7,171.3 -2.89,16.2 -3.35,32.5 -1.39,48.8 v 0"
         style="fill:#161821;fill-opacity:1;fill-rule:nonzero;stroke:none"
         id="path44" /><path
         d="m 4829.9,10420.4 c 6.34,-3.5 19.16,-10.3 25.62,-13.6 9.57,-14.2 21.81,-26.6 37.62,-33.9 35.77,-75.2 -9.81,-153.9 -41.89,-221.6 -30.58,-70.1 -97.74,-120.9 -111.13,-198.53 l -17.31,-7.03 c 8.66,82.86 78.94,136.76 112.28,208.66 25.74,54.6 59.09,111.1 55.51,173.4 -1.04,37 -34.85,56.6 -60.58,76.6 0,4 -0.12,11.9 -0.12,16 v 0"
         style="fill:#161821;fill-opacity:1;fill-rule:nonzero;stroke:none"
         id="path46" /><path
         d="m 4617.8,10400.8 c 12.35,6.8 25.15,12.6 38.54,17.4 -3,-16.2 -1.39,-31.5 4.97,-46.1 33.81,-51.7 41.42,-121.7 -0.7,-171.3 -5.08,35.4 -6.35,71.3 -12.35,106.6 -10.61,31.5 -48.92,-0.6 -40.85,-25.3 -15,-54.2 -44.2,-104.9 -88.74,-140.2 9.12,63.8 10.38,134 51.82,187.1 24.46,-8.3 39.12,16.8 32.54,38.3 4.96,11.1 9.93,22.3 14.77,33.5 v 0"
         style="fill:#f2ee14;fill-opacity:1;fill-rule:nonzero;stroke:none"
         id="path48" /><path
         d="m 4855.52,10406.8 c 23.19,8.3 42.47,-10.1 37.62,-33.9 -15.81,7.3 -28.05,19.7 -37.62,33.9 v 0"
         style="fill:#fabf3a;fill-opacity:1;fill-rule:nonzero;stroke:none"
         id="path50" /><path
         d="m 4570.49,10329 c 8.19,14.8 17.65,29.3 32.54,38.3 6.58,-21.5 -8.08,-46.6 -32.54,-38.3 v 0"
         style="fill:#f9ba2e;fill-opacity:1;fill-rule:nonzero;stroke:none"
         id="path52" /><path
         d="m 4607.41,10282.1 c -8.07,24.7 30.24,56.8 40.85,25.3 -13.96,-8.1 -27.93,-15.9 -40.85,-25.3 v 0"
         style="fill:#fbc44c;fill-opacity:1;fill-rule:nonzero;stroke:none"
         id="path54" /><path
         d="m 5044.08,10162 18.82,9.4 c -5.08,-46.4 -8.79,-93 -8.54,-139.6 24.57,-7.4 49.49,-14.5 75.69,-13.5 -5.43,-7.2 -10.84,-14.4 -16.49,-21.32 l -5.78,-1.27 c -23.42,9.49 -47.9,16.19 -72.48,21.59 0.82,48.3 3.12,96.7 8.78,144.7 v 0"
         style="fill:#35332c;fill-opacity:1;fill-rule:nonzero;stroke:none"
         id="path56" /><path
         d="m 5132.25,9996.75 c 4.14,3.45 12.34,10.55 16.38,13.95 78.58,-32.19 144.6,-86.42 210.73,-138.35 52.84,-42.82 100.03,-93.02 138.01,-149.56 37.96,-55.17 95.2,-91.86 146.67,-133.05 -9.47,-1.28 -28.49,-3.93 -37.97,-5.2 29.08,-26.77 70.51,-31.39 106.64,-43.85 23.3,-26.78 -21.7,-46.51 -22.28,-72.59 -3.93,3.47 -11.66,10.39 -15.47,13.85 l -3.34,3.81 c 5.77,5.66 17.42,16.96 23.19,22.61 15.23,9.59 14.77,16.97 -1.48,22.28 -40.99,9.81 -80.79,25.15 -115.99,48.36 20.18,11.65 24.35,38.99 -2.43,44.42 -15.58,11.66 -30.46,24.24 -44.3,37.85 -9.92,13.04 -21.25,24.81 -33.7,35.31 -13.97,18.35 -27.12,37.39 -40.39,56.21 -10.74,18.23 -24.94,33.81 -41.9,46.39 -2.88,3.11 -8.53,9.34 -11.29,12.34 -12.35,17.89 -28.86,31.85 -47.1,43.16 -70.62,52.85 -137.55,116.32 -223.98,142.06 v 0"
         style="fill:#161821;fill-opacity:1;fill-rule:nonzero;stroke:none"
         id="path58" /><path
         d="m 4728.7,9902.69 c -20.31,-1.72 -12.47,39.93 2.19,43.28 0.12,-8.42 0.46,-25.39 0.58,-33.81 l -2.77,-9.47 v 0"
         style="fill:#242021;fill-opacity:1;fill-rule:nonzero;stroke:none"
         id="path60" /><path
         d="m 4918.65,9944.01 c 15.23,1.26 32.19,3.81 34.27,-16.38 -7.05,2.53 -21.23,7.49 -28.27,9.92 1.14,-24.47 1.73,-49.05 2.66,-73.63 -12.93,24.82 -13.29,53.08 -8.66,80.09 v 0"
         style="fill:#aea71e;fill-opacity:1;fill-rule:nonzero;stroke:none"
         id="path62" /><path
         d="m 4924.65,9937.55 c 7.04,-2.43 21.22,-7.39 28.27,-9.92 -0.92,-10.16 -2.67,-30.47 -3.58,-40.63 -3.81,-18.69 0.81,-37.38 9.7,-53.89 l 1.03,-16.04 c -1.03,-12 2.65,-22.39 10.95,-31.39 14.79,-26.66 29.68,-53.31 46.87,-78.7 13.26,-27.36 34.96,-48.47 62.55,-61.39 29.2,-18.7 56.77,-40.39 90.34,-50.9 5.32,6.12 15.82,18.47 21.02,24.7 12.22,-8.42 24.44,-16.84 36.57,-25.5 11.08,-15 27.7,-1.96 23.43,13.62 l 12.7,13.15 c 10.37,-11.88 21.11,-23.65 31.37,-35.88 8.55,-12.82 16.64,-12.36 24.23,1.38 3.7,4.26 10.97,12.69 14.66,16.96 6.59,-3.35 19.74,-10.15 26.33,-13.61 -11.42,-8.66 -20.66,-19.62 -30.13,-30.36 -26.54,-23.89 -61.27,0.12 -91.85,-1.73 -92.21,-2.19 -176.79,54.12 -230.34,125.1 -4.5,16.5 -15.12,29.53 -30.46,36.93 -22.5,25.03 -36,59.88 -37.63,93.24 1.96,15 -2.08,29.54 -10.04,42 l -3.33,9.23 c -0.93,24.58 -1.52,49.16 -2.66,73.63 v 0"
         style="fill:#251e15;fill-opacity:1;fill-rule:nonzero;stroke:none"
         id="path64" /><path
         d="m 4711.38,9895.2 15.13,7.15 c -3.82,-36.7 -9.59,-74.21 -2.32,-110.9 17.43,-91.74 75.7,-167.67 131.91,-239.45 42.58,-54.47 118.06,-27.7 176.67,-37.28 -43.63,-1.73 -87.36,-2.3 -130.86,-6.45 -49.96,3.45 -75.47,56.88 -102.47,92.66 -63.82,82.4 -111.71,188.22 -88.06,294.27 v 0"
         style="fill:#161821;fill-opacity:1;fill-rule:nonzero;stroke:none"
         id="path66" /><path
         d="m 4949.34,9887 c 20.9,-1.03 20.78,-40.39 9.7,-53.89 -8.89,16.51 -13.51,35.2 -9.7,53.89 v 0"
         style="fill:#918821;fill-opacity:1;fill-rule:nonzero;stroke:none"
         id="path68" /><path
         d="m 4930.64,9854.69 c 7.96,-12.46 12,-27 10.04,-42 -20.53,-5.31 -22.73,32.07 -10.04,42 v 0"
         style="fill:#897e21;fill-opacity:1;fill-rule:nonzero;stroke:none"
         id="path70" /><path
         d="m 5356.23,9854.69 c 18.24,-11.31 34.75,-25.27 47.1,-43.16 -27.81,-6.12 -53.32,13.85 -47.1,43.16 v 0"
         style="fill:#fabf3a;fill-opacity:1;fill-rule:nonzero;stroke:none"
         id="path72" /><path
         d="m 4960.07,9817.07 c 19.04,-2.65 22.73,-13.04 10.95,-31.39 -8.3,9 -11.98,19.39 -10.95,31.39 v 0"
         style="fill:#877d21;fill-opacity:1;fill-rule:nonzero;stroke:none"
         id="path74" /><path
         d="m 5414.62,9799.19 c 16.96,-12.58 31.16,-28.16 41.9,-46.39 -28.97,-6.7 -49.63,18.81 -41.9,46.39 v 0"
         style="fill:#f9ba2e;fill-opacity:1;fill-rule:nonzero;stroke:none"
         id="path76" /><path
         d="m 4978.31,9719.45 c 15.34,-7.4 25.96,-20.43 30.46,-36.93 -18.24,-8.54 -41.2,20.65 -30.46,36.93 v 0"
         style="fill:#878222;fill-opacity:1;fill-rule:nonzero;stroke:none"
         id="path78" /><path
         d="m 5017.89,9706.98 c 22.73,-18.35 44.2,-38.54 62.55,-61.39 -27.59,12.92 -49.29,34.03 -62.55,61.39 v 0"
         style="fill:#4d431b;fill-opacity:1;fill-rule:nonzero;stroke:none"
         id="path80" /><path
         d="m 5496.91,9696.59 c 12.45,-10.5 23.78,-22.27 33.7,-35.31 -22.98,-10.96 -45.25,13.16 -33.7,35.31 v 0"
         style="fill:#f9ba2e;fill-opacity:1;fill-rule:nonzero;stroke:none"
         id="path82" /><path
         d="m 5574.91,9623.43 c 26.78,-5.43 22.61,-32.77 2.43,-44.42 -15.69,8.53 -9,31.73 -2.43,44.42 v 0"
         style="fill:#fbc758;fill-opacity:1;fill-rule:nonzero;stroke:none"
         id="path84" /><path
         d="m 5241.77,9609.92 10.03,-2.41 c 4.27,-15.58 -12.35,-28.62 -23.43,-13.62 3.35,4.03 10.05,12.01 13.4,16.03 v 0"
         style="fill:#c7bc17;fill-opacity:1;fill-rule:nonzero;stroke:none"
         id="path86" /><path
         d="m 5295.87,9584.78 c 6.13,0.34 18.24,1.03 24.23,1.38 -7.59,-13.74 -15.68,-14.2 -24.23,-1.38 v 0"
         style="fill:#afa51f;fill-opacity:1;fill-rule:nonzero;stroke:none"
         id="path88" /><path
         d="m 5361.09,9589.51 5.31,-1.85 c 9.92,-19.73 -18.35,-41.32 -35.44,-28.51 9.47,10.74 18.71,21.7 30.13,30.36 v 0"
         style="fill:#cfc812;fill-opacity:1;fill-rule:nonzero;stroke:none"
         id="path90" /><path
         d="m 5693.33,9530.65 c 16.25,-5.31 16.71,-12.69 1.48,-22.28 -0.34,5.54 -1.16,16.74 -1.48,22.28 v 0"
         style="fill:#fcd171;fill-opacity:1;fill-rule:nonzero;stroke:none"
         id="path92" /><path
         d="m 4901.91,9508.27 c 43.5,4.15 87.23,4.72 130.86,6.45 81.36,-59.31 172.64,-115.16 275.8,-120.82 7.86,0.34 23.43,1.16 31.29,1.5 16.26,-53.89 21.1,-110.55 38.76,-164.09 -30.46,-35.43 -74.32,-56.2 -102.81,-93.48 -29.32,-35.88 -56.33,-73.74 -79.63,-113.78 19.17,-27.35 27.58,-63.24 51.8,-86.09 77.89,23.66 155.46,48.58 232.66,74.43 29.88,-41.31 60.7,-84.92 105.59,-111.24 55.97,-24.58 129.35,-9.34 166.28,40.97 32.08,-41.44 54.71,-93.25 97.28,-124.87 104.56,-2.77 209.22,1.28 313.77,-1.84 70.17,-1.04 140.11,-37.63 174.72,-99.7 41.53,-68.09 37.04,-160.76 -11.08,-224.34 -32.77,-45.01 -85.27,-75.01 -140.68,-80.2 -114.92,1.27 -229.86,-3.12 -344.67,2.07 0,21.01 0.21,41.89 -0.94,62.78 l -5.53,3.11 c -156.73,65.33 -251.47,227.8 -417.52,275.58 -95.55,31.85 -195.85,11.42 -292.88,0.12 -16.39,-3.58 -40.28,-9.47 -40.62,-30.35 -4.74,-24.13 16.73,-39.47 32.19,-53.78 58.04,-50.08 141.71,-75.47 174.03,-150.94 63.58,-24.12 103.04,-86.09 168.47,-105.94 -170.79,-5.42 -341.93,-1.5 -512.82,-2.19 -0.24,20.43 0,40.85 -2.89,61.04 -93.94,133.41 -217.65,250.65 -368.01,316.77 -89.43,13.51 -200.79,30.36 -271.3,-40.51 8.89,-54.34 56.54,-84 97.97,-112.85 29.89,-19.5 44.67,-54.24 73.74,-74.78 55.39,-41.2 96.48,-102.93 163.18,-127.75 28.16,-12.11 59.42,-8.77 89.31,-8.31 -9.57,13.39 -19.04,26.78 -28.61,40.17 24.35,10.61 50.89,27.92 78.24,15.69 47.77,-16.85 87.36,-51.7 137.32,-63.59 -107.66,-13.5 -216.84,-2.88 -325.19,-6.69 -118.29,4.15 -236.69,0.7 -355.08,1.73 -176.34,0.69 -352.78,-1.27 -529.22,0.93 -99.48,11.3 -178.99,107.2 -172.17,207.02 -0.47,98.66 83.54,187.75 181.75,194.21 122.89,5.54 246.14,-2.3 369.16,3.92 15.34,42.82 24.69,87.36 32.65,132.14 55.05,-42.35 115.29,-76.85 174.72,-112.51 54.46,48.24 106.28,99.59 160.98,147.7 72.93,-38.31 145.05,-78.23 218.79,-115.16 16.05,9.01 32.2,17.77 48.47,26.43 12.58,51.12 19.04,103.51 27.12,155.44 46.51,-46.39 84.82,-100.98 138.48,-139.99 39.01,41.79 68.43,91.06 105.01,134.8 2.77,-34.28 6.92,-68.55 13.17,-102.47 27.79,22.61 64.03,40.38 75.23,76.96 31.62,79.4 77.42,159.71 66.93,248.11 -23.42,-25.73 -39.12,-59.43 -69.71,-77.78 -55.74,-3.92 -113.09,10.38 -160.51,40.15 -53.78,35.55 -114.36,59.9 -164.1,101.68 9.81,60.01 -34.5,102.82 -76.05,137.67 59.44,-2.54 98.9,-52.97 150.49,-75.25 49.73,-28.38 108.12,-29.19 163.63,-34.5 -22.39,52.27 -49.74,103.51 -87.82,146.22 v 0"
         style="fill:#631135;fill-opacity:1;fill-rule:nonzero;stroke:none"
         id="path94" /><path
         d="m 5504.17,9508.95 c 5.76,-2.88 17.55,-8.66 23.43,-11.54 -5.54,0.58 -16.49,1.62 -22.05,2.2 l -1.38,9.34 v 0"
         style="fill:#87894c;fill-opacity:1;fill-rule:nonzero;stroke:none"
         id="path96" /><path
         d="m 5505.55,9499.61 c 5.56,-0.58 16.51,-1.62 22.05,-2.2 10.51,-5.77 21.01,-11.77 31.39,-17.99 12.47,-13.51 39.92,-32.32 51.13,-7.04 15,-4.39 30.21,-7.51 45.8,-10.16 4.74,-2.88 14.43,-8.42 19.17,-11.31 -43.4,-7.5 -91.98,-6.93 -129.14,19.73 -6,-4.38 -17.89,-13.38 -23.78,-17.88 -5.65,12 -10.6,24.12 -14.88,36.35 l -1.74,10.5 v 0"
         style="fill:#161720;fill-opacity:1;fill-rule:nonzero;stroke:none"
         id="path98" /><path
         d="m 4476.55,9466.72 c 64.16,22.73 133.29,14.31 199.06,5.08 41.55,-34.85 85.86,-77.66 76.05,-137.67 -9.81,-71.32 -69.82,-123.6 -131.44,-153.37 -81.82,-39.35 -185.68,-51.92 -266.34,-3.23 -46.39,27.12 -67.85,85.63 -51.93,136.75 24.81,78.58 100.05,127.4 174.6,152.44 v 0"
         style="fill:#161821;fill-opacity:1;fill-rule:nonzero;stroke:none"
         id="path100" /><path
         d="m 5558.99,9479.42 c 17.3,4.15 35.2,0.92 51.13,-7.04 -11.21,-25.28 -38.66,-6.47 -51.13,7.04 v 0"
         style="fill:#a3a429;fill-opacity:1;fill-rule:nonzero;stroke:none"
         id="path102" /><path
         d="m 4374.88,9393.56 c 83.21,69.23 205.3,96.82 306.39,51.46 l 2.88,-10.38 c 2.2,-22.86 20.43,-36.92 41.09,-43.51 18.69,-9.58 11.42,-36.92 12.11,-54.23 -10.27,-61.74 -60.7,-108.25 -113.67,-136.75 -70.96,-36.58 -158.21,-53.55 -234.49,-22.97 -41.65,15.7 -79.16,54.13 -77.89,101.09 1.62,45.82 30.35,85.97 63.58,115.29 v 0"
         style="fill:#f3ef14;fill-opacity:1;fill-rule:nonzero;stroke:none"
         id="path104" /><path
         d="m 5308.57,9393.9 c 50.1,28.39 101.9,52.51 157.64,67.74 10.62,1.73 31.73,5.2 42.35,6.81 -3.92,-10.39 -11.08,-16.85 -21.45,-19.38 -47.21,-13.28 -97.3,-22.86 -137.23,-53.09 l -10.02,-0.58 c -7.86,-0.34 -23.43,-1.16 -31.29,-1.5 v 0"
         style="fill:#161821;fill-opacity:1;fill-rule:nonzero;stroke:none"
         id="path106" /><path
         d="m 4684.15,9434.64 c 19.73,4.96 46.17,-23.89 41.09,-43.51 -20.66,6.59 -38.89,20.65 -41.09,43.51 v 0"
         style="fill:#fabf3a;fill-opacity:1;fill-rule:nonzero;stroke:none"
         id="path108" /><path
         d="m 4304.03,8748.93 c 70.51,70.87 181.87,54.02 271.3,40.51 150.36,-66.12 274.07,-183.36 368.01,-316.77 -0.34,-18 -0.7,-36.11 -0.82,-54.23 -6.8,-0.23 -20.41,-0.69 -27.34,-0.93 -49.96,11.89 -89.55,46.74 -137.32,63.59 -27.35,12.23 -53.89,-5.08 -78.24,-15.69 9.57,-13.39 19.04,-26.78 28.61,-40.17 -29.89,-0.46 -61.15,-3.8 -89.31,8.31 -66.7,24.82 -107.79,86.55 -163.18,127.75 -29.07,20.54 -43.85,55.28 -73.74,74.78 -41.43,28.85 -89.08,58.51 -97.97,112.85 v 0"
         style="fill:#4daae3;fill-opacity:1;fill-rule:nonzero;stroke:none"
         id="path110" /><path
         d="m 5124.98,8754.83 c 97.03,11.3 197.33,31.73 292.88,-0.12 166.05,-47.78 260.79,-210.25 417.52,-275.58 -0.23,-20.42 -0.48,-40.85 -0.48,-61.27 -143.67,21.58 -249.95,128.56 -379.89,183.25 -17.87,-12.8 -35.19,-28.27 -40.5,-50.54 23.54,-63.12 124.28,-63.7 128.91,-137.67 -25.74,0.34 -51.36,-0.7 -76.87,-0.58 l -7.5,1.5 c -65.43,19.85 -104.89,81.82 -168.47,105.94 -32.32,75.47 -115.99,100.86 -174.03,150.94 -15.46,14.31 -36.93,29.65 -32.19,53.78 0.34,20.88 24.23,26.77 40.62,30.35 v 0"
         style="fill:#4daae3;fill-opacity:1;fill-rule:nonzero;stroke:none"
         id="path112" /><path
         d="m 3764.77,8710.05 c 29.43,46.28 91.75,42.12 138.14,29.54 59.42,-15.93 90.69,-72.59 129.81,-114.82 23.31,-27.93 62.55,-35.77 83.44,-66.35 28.51,-37.74 89.9,-50.31 99.59,-100.64 -7.85,-39.11 -53.66,-31.61 -82.74,-26.53 -59.09,10.04 -97.28,59.31 -135.94,100.04 -33.12,34.74 -86.78,36.59 -127.4,14.32 -15.81,-3.58 -27.93,-27.12 -13.5,-39.35 21.69,-18.59 51.34,-23.66 76.04,-37.51 -0.11,-7.62 -0.46,-22.97 -0.57,-30.58 -33.12,-12.12 -72.82,-16.61 -102.48,6.35 -30.7,23.77 -58.51,51.7 -93.01,70.04 -21.69,64.74 -22.04,143.9 28.62,195.49 v 0"
         style="fill:#4daae3;fill-opacity:1;fill-rule:nonzero;stroke:none"
         id="path114" /><path
         d="m 6069.41,8740.17 c 62.89,5.08 116.31,-65.66 99.23,-126.24 -26.19,-8.08 -56.42,-1.39 -73.27,21.34 -21.47,30 -54.02,68.31 -25.96,104.9 v 0"
         style="fill:#4daae3;fill-opacity:1;fill-rule:nonzero;stroke:none"
         id="path116" /><path
         d="m 5414.51,8550.57 c 5.31,22.27 22.63,37.74 40.5,50.54 129.94,-54.69 236.22,-161.67 379.89,-183.25 0,20.42 0.25,40.85 0.48,61.27 l 5.53,-3.11 c 1.15,-20.89 0.94,-41.77 0.94,-62.78 -99.49,-1.5 -199.08,-6 -298.43,-0.34 -4.63,73.97 -105.37,74.55 -128.91,137.67 v 0"
         style="fill:#641135;fill-opacity:1;fill-rule:nonzero;stroke:none"
         id="path118" /><path
         d="m 4943.34,8472.67 c 2.89,-20.19 2.65,-40.61 2.89,-61.04 170.89,0.69 342.03,-3.23 512.82,2.19 l 7.5,-1.5 5.43,-8.53 c -90.24,1.14 -180.6,2.99 -270.83,1.03 -117.84,1.03 -235.65,-1.73 -353.36,-0.46 -85.97,3.46 -172.52,-6.01 -257.8,6.46 108.35,3.81 217.53,-6.81 325.19,6.69 6.93,0.24 20.54,0.7 27.34,0.93 0.12,18.12 0.48,36.23 0.82,54.23 v 0"
         style="fill:#c07c5a;fill-opacity:1;fill-rule:nonzero;stroke:none"
         id="path120" /><path
         d="m 2587.59,8414.17 c 372.73,5.42 745.35,-5.89 1118.1,-0.69 176.44,-2.2 352.88,-0.24 529.22,-0.93 -1.85,-21.23 -3.7,-42.47 -5.54,-63.7 -12.59,-3.92 -24.93,-7.85 -37.4,-11.77 5.66,-2.54 16.97,-7.5 22.63,-10.05 0.58,-22.03 2.07,-44.07 5.18,-65.88 -497.14,-0.7 -994.5,1.73 -1491.64,-1.5 2.54,-437.59 -10.15,-875.41 0.12,-1313.01 5.65,-218.91 0.81,-438.17 2.42,-657.19 -1.61,-323.12 3.35,-646.24 2.42,-969.36 4.73,-177.02 -2.99,-356.23 33.58,-530.72 40.17,0.23 80.44,-0.22 120.6,0.12 v -9.92 c -40.74,0.23 -81.47,0 -122.21,-0.23 28.39,-151.64 72.7,-301.07 139.75,-440.36 127.98,-273.61 323,-510.65 547.92,-710.28 -4.97,-21.82 -9.12,-43.97 -12.24,-66.25 4.96,-1.14 14.77,-3.46 19.62,-4.62 -16.16,-16.96 -34.85,-35.66 -26.31,-61.26 15.11,-4.04 30.35,-9.48 41.31,-21.47 -28.5,-8.66 -58.16,-2.65 -85.86,5.9 -299,251.56 -546.99,571.79 -683.96,940.03 -77.32,205.98 -117.37,425.24 -122.45,645.07 -12.57,757.71 -3,1515.53 -3.46,2273.24 7.16,200.1 -2.31,400.55 5.66,600.65 -0.23,158.1 -1.04,316.2 2.54,474.18 v 0"
         style="fill:#f7b219;fill-opacity:1;fill-rule:nonzero;stroke:none"
         id="path122" /><path
         d="m 4234.91,8412.55 c 118.39,-1.03 236.79,2.42 355.08,-1.73 85.28,-12.47 171.83,-3 257.8,-6.46 4.16,-32.66 6.35,-65.67 3.8,-98.55 -11.42,-3.92 -22.85,-7.73 -34.16,-11.65 11.66,-10.74 23.21,-21.47 34.63,-32.55 -210.72,-0.46 -421.44,-0.8 -632.28,-0.46 -3.11,21.81 -4.6,43.85 -5.18,65.88 -5.66,2.55 -16.97,7.51 -22.63,10.05 12.47,3.92 24.81,7.85 37.4,11.77 1.84,21.23 3.69,42.47 5.54,63.7 v 0"
         style="fill:#f9b628;fill-opacity:1;fill-rule:nonzero;stroke:none"
         id="path124" /><path
         d="m 5466.55,8412.32 c 25.51,-0.12 51.13,0.92 76.87,0.58 99.35,-5.66 198.94,-1.16 298.43,0.34 114.81,-5.19 229.75,-0.8 344.67,-2.07 l -5.31,-5.89 c -25.15,-3 -50.43,-2.54 -75.58,-2.07 -22.73,0.58 -45.46,1.03 -68.2,1.38 -16.96,0.23 -33.93,0.46 -50.89,0.58 -33.69,0.58 -67.39,1.04 -100.98,-0.58 -39.22,-2.31 -78.58,-2.66 -117.93,-0.7 -28.96,0.93 -58.05,1.04 -87.02,1.16 -31.26,0.35 -62.53,0.46 -93.69,-0.81 -30.35,-1.38 -60.71,-1.84 -90.94,-1.03 -6,0.11 -17.99,0.45 -24,0.58 l -5.43,8.53 v 0"
         style="fill:#c89a98;fill-opacity:1;fill-rule:nonzero;stroke:none"
         id="path126" /><path
         d="m 4847.79,8404.36 c 117.71,-1.27 235.52,1.49 353.36,0.46 4.02,-49.74 -20.2,-94.98 -23.55,-143.78 -108.49,0.34 -217.07,-1.85 -325.54,0.57 -11.42,11.08 -22.97,21.81 -34.63,32.55 11.31,3.92 22.74,7.73 34.16,11.65 2.55,32.88 0.36,65.89 -3.8,98.55 v 0"
         style="fill:#fbc048;fill-opacity:1;fill-rule:nonzero;stroke:none"
         id="path128" /><path
         d="m 5201.15,8404.82 c 90.23,1.96 180.59,0.11 270.83,-1.03 6.01,-0.13 18,-0.47 24,-0.58 -0.12,-13.62 -0.93,-27.24 -2.42,-40.85 4.04,-35.67 -24.93,-66.01 -17.08,-102.36 -99.59,-0.12 -199.3,-0.81 -298.88,1.04 3.35,48.8 27.57,94.04 23.55,143.78 v 0"
         style="fill:#fccc6c;fill-opacity:1;fill-rule:nonzero;stroke:none"
         id="path130" /><path
         d="m 5495.98,8403.21 c 30.23,-0.81 60.59,-0.35 90.94,1.03 0.91,-49.28 -7.16,-98.2 -23.89,-144.59 -28.84,0.11 -57.7,0.35 -86.55,0.35 -7.85,36.35 21.12,66.69 17.08,102.36 1.49,13.61 2.3,27.23 2.42,40.85 v 0"
         style="fill:#fcd98a;fill-opacity:1;fill-rule:nonzero;stroke:none"
         id="path132" /><path
         d="m 5586.92,8404.24 c 31.16,1.27 62.43,1.16 93.69,0.81 -3.56,-49.62 -20.88,-96.59 -29.52,-145.29 -29.43,0.12 -58.75,0 -88.06,-0.11 16.73,46.39 24.8,95.31 23.89,144.59 v 0"
         style="fill:#fddf9f;fill-opacity:1;fill-rule:nonzero;stroke:none"
         id="path134" /><path
         d="m 5680.61,8405.05 c 28.97,-0.12 58.06,-0.23 87.02,-1.16 -27,-44.88 -10.62,-102.93 -42.46,-144.82 -24.7,0.23 -49.51,0.58 -74.08,0.69 8.64,48.7 25.96,95.67 29.52,145.29 v 0"
         style="fill:#fde6b3;fill-opacity:1;fill-rule:nonzero;stroke:none"
         id="path136" /><path
         d="m 5767.63,8403.89 c 39.35,-1.96 78.71,-1.61 117.93,0.7 -0.8,-49.16 -15.33,-96.59 -17.54,-145.64 -47.65,0 -95.2,0.47 -142.85,0.12 31.84,41.89 15.46,99.94 42.46,144.82 v 0"
         style="fill:#fef3d6;fill-opacity:1;fill-rule:nonzero;stroke:none"
         id="path138" /><path
         d="m 5885.56,8404.59 c 33.59,1.62 67.29,1.16 100.98,0.58 -9.12,-48.47 -19.28,-96.94 -25.51,-146.1 -31.03,0 -62.07,0 -93.01,-0.12 2.21,49.05 16.74,96.48 17.54,145.64 v 0"
         style="fill:#fffaf7;fill-opacity:1;fill-rule:nonzero;stroke:none"
         id="path140" /><path
         d="m 5986.54,8405.17 c 16.96,-0.12 33.93,-0.35 50.89,-0.58 -2.76,-49.16 -10.03,-97.86 -22.62,-145.4 -17.99,0 -35.88,0 -53.78,-0.12 6.23,49.16 16.39,97.63 25.51,146.1 v 0"
         style="fill:#fef5e0;fill-opacity:1;fill-rule:nonzero;stroke:none"
         id="path142" /><path
         d="m 6037.43,8404.59 c 22.74,-0.35 45.47,-0.8 68.2,-1.38 -8.77,-47.78 -16.39,-95.78 -23.77,-143.79 -22.39,-0.12 -44.78,-0.23 -67.05,-0.23 12.59,47.54 19.86,96.24 22.62,145.4 v 0"
         style="fill:#fdebc3;fill-opacity:1;fill-rule:nonzero;stroke:none"
         id="path144" /><path
         d="m 6105.63,8403.21 c 25.15,-0.47 50.43,-0.93 75.58,2.07 3.23,-49.5 -10.49,-97.74 -20.87,-145.63 -26.21,0.11 -52.4,-0.12 -78.48,-0.23 7.38,48.01 15,96.01 23.77,143.79 v 0"
         style="fill:#fde2aa;fill-opacity:1;fill-rule:nonzero;stroke:none"
         id="path146" /><path
         d="m 6181.21,8405.28 c 29.67,1.96 59.33,2.66 89.1,1.73 12.23,-49.51 -10.96,-97.51 -7.97,-147.13 -34.04,-0.12 -68.09,-0.12 -102,-0.23 10.38,47.89 24.1,96.13 20.87,145.63 v 0"
         style="fill:#fcdb8f;fill-opacity:1;fill-rule:nonzero;stroke:none"
         id="path148" /><path
         d="m 6270.31,8407.01 c 41.89,-0.23 83.78,0.58 125.66,-0.12 -9.92,-48.92 -30.11,-96.12 -30.34,-146.66 -34.51,0.11 -68.89,-0.12 -103.29,-0.35 -2.99,49.62 20.2,97.62 7.97,147.13 v 0"
         style="fill:#fcd175;fill-opacity:1;fill-rule:nonzero;stroke:none"
         id="path150" /><path
         d="m 6395.97,8406.89 c 35.2,0.35 70.28,0.35 105.48,0 7.39,-49.62 -7.73,-97.85 -16.84,-146.21 -39.7,-0.23 -79.4,-0.68 -118.98,-0.45 0.23,50.54 20.42,97.74 30.34,146.66 v 0"
         style="fill:#fbc961;fill-opacity:1;fill-rule:nonzero;stroke:none"
         id="path152" /><path
         d="m 6501.45,8406.89 c 43.73,-0.11 87.47,0.24 131.2,0.24 -8.87,-48.47 -10.6,-97.87 -18.33,-146.45 -43.29,-0.11 -86.56,0.23 -129.71,0 9.11,48.36 24.23,96.59 16.84,146.21 v 0"
         style="fill:#fbc44c;fill-opacity:1;fill-rule:nonzero;stroke:none"
         id="path154" /><path
         d="m 6632.65,8407.13 c 39.59,-0.12 79.29,0.23 118.99,-0.35 -5.65,-50.08 -24.46,-97.16 -37.5,-145.52 -33.23,0 -66.6,-0.35 -99.82,-0.58 7.73,48.58 9.46,97.98 18.33,146.45 v 0"
         style="fill:#fabf41;fill-opacity:1;fill-rule:nonzero;stroke:none"
         id="path156" /><path
         d="m 6751.64,8406.78 c 41.54,0 83.08,0.23 124.63,0 7.26,-9.23 14.65,-18.57 22.05,-27.92 -9.6,-12.7 -19.17,-25.39 -28.63,-38.08 3.46,-26.55 6.93,-53.08 10.39,-79.63 -55.28,-0.34 -110.67,-0.11 -165.94,0.11 13.04,48.36 31.85,95.44 37.5,145.52 v 0"
         style="fill:#f9b932;fill-opacity:1;fill-rule:nonzero;stroke:none"
         id="path158" /><path
         d="m 6876.27,8406.78 c 84.81,-0.23 169.51,0.35 254.45,0 1.96,-27.69 4.03,-55.39 6.24,-83.09 -10.28,0.35 -20.45,0.7 -30.59,1.04 0.45,-31.96 28.63,-48.46 53.77,-61.73 -93.35,-3.58 -186.7,-1.27 -280.06,-1.85 -3.46,26.55 -6.93,53.08 -10.39,79.63 9.46,12.69 19.03,25.38 28.63,38.08 -7.4,9.35 -14.79,18.69 -22.05,27.92 v 0"
         style="fill:#f9b626;fill-opacity:1;fill-rule:nonzero;stroke:none"
         id="path160" /><path
         d="m 7130.72,8406.78 c 74.33,-0.23 148.63,0 223.06,-0.11 -4.15,-217.42 -2.88,-434.95 -2.76,-652.46 -6.82,-161.45 -1.39,-323.12 -3.58,-484.68 -6.23,-149.55 1.62,-299.23 -4.74,-448.79 0,-342.84 -7.73,-685.47 -9.46,-1028.2 -6.68,-277.31 -6.91,-554.73 -21.23,-831.8 -22.73,-419.82 -194.68,-824.52 -461.7,-1146.95 -124.63,-153.13 -269,-289.29 -423.4,-412.08 l -2.55,0.46 c -19.61,3.58 -39.35,6.81 -58.96,9.69 -11.31,40.85 11.99,91.05 -15.11,125.77 262.28,206.35 496.21,456.89 646.69,757.26 69.12,132.7 118.51,275.91 148.28,422.59 23.66,122.21 37.86,246.61 35.21,371.24 -0.36,373.32 -0.36,746.63 0.1,1119.95 -5.77,246.14 -1.62,492.29 -2.76,738.32 -0.48,435.28 0.91,870.57 -0.7,1305.85 l -0.58,7.16 c -4.03,0.81 -12.33,2.3 -16.39,3 -25.14,13.27 -53.32,29.77 -53.77,61.73 10.14,-0.34 20.31,-0.69 30.59,-1.04 -2.21,27.7 -4.28,55.4 -6.24,83.09 v 0"
         style="fill:#f7b21b;fill-opacity:1;fill-rule:nonzero;stroke:none"
         id="path162" /><path
         d="m 2728.14,8259.65 c 497.14,3.23 994.5,0.8 1491.64,1.5 210.84,-0.34 421.56,0 632.28,0.46 108.47,-2.42 217.05,-0.23 325.54,-0.57 99.58,-1.85 199.29,-1.16 298.88,-1.04 28.85,0 57.71,-0.24 86.55,-0.35 29.31,0.11 58.63,0.23 88.06,0.11 24.57,-0.11 49.38,-0.46 74.08,-0.69 47.65,0.35 95.2,-0.12 142.85,-0.12 30.94,0.12 61.98,0.12 93.01,0.12 17.9,0.12 35.79,0.12 53.78,0.12 22.27,0 44.66,0.11 67.05,0.23 26.08,0.11 52.27,0.34 78.48,0.23 33.91,0.11 67.96,0.11 102,0.23 34.4,0.23 68.78,0.46 103.29,0.35 39.58,-0.23 79.28,0.22 118.98,0.45 43.15,0.23 86.42,-0.11 129.71,0 33.22,0.23 66.59,0.58 99.82,0.58 55.27,-0.22 110.66,-0.45 165.94,-0.11 93.36,0.58 186.71,-1.73 280.06,1.85 4.06,-0.7 12.36,-2.19 16.39,-3 l 0.58,-7.16 c -588.19,0.47 -1176.37,5.19 -1764.68,2.08 -892.38,-2.54 -1784.76,-0.69 -2677.14,-1.39 1.05,-354.73 -4.61,-709.24 -3.11,-1063.98 -1.73,-80.89 4.27,-162.14 -3.92,-242.91 -10.27,437.6 2.42,875.42 -0.12,1313.01 v 0"
         style="fill:#5a5348;fill-opacity:1;fill-rule:nonzero;stroke:none"
         id="path164" /><path
         d="m 2735.29,8253.53 c 892.38,0.7 1784.76,-1.15 2677.14,1.39 588.31,3.11 1176.49,-1.61 1764.68,-2.08 1.61,-435.28 0.22,-870.57 0.7,-1305.85 -1483.23,-0.23 -2966.33,0.46 -4449.55,-0.35 8.19,80.77 2.19,162.02 3.92,242.91 -1.5,354.74 4.16,709.25 3.11,1063.98 v 0"
         style="fill:#161821;fill-opacity:1;fill-rule:nonzero;stroke:none"
         id="path166" /><path
         d="m 3380.26,8087.36 c -4.27,20.65 31.97,20.65 38.43,5.07 25.85,-42.34 50.32,-85.74 73.39,-129.7 26.66,48.69 49.51,111.35 108.36,128.44 64.63,13.38 108.14,-51.35 129.94,-102.71 8.54,-12.23 6.81,-38.43 26.55,-37.04 27.69,41.08 45.57,88.74 76.73,127.28 14.09,18.82 45.7,-2.31 39.82,-23.65 -31.17,-63.47 -71.2,-122.21 -103.06,-185.33 0.93,-5.89 2.66,-17.89 3.58,-23.89 102.25,22.73 206.22,42.81 311.35,40.27 42.93,-0.11 92.09,1.62 126.25,-28.96 13.72,-21.35 2.88,-48.36 -13.74,-64.62 -46.85,-50.67 -108.36,-85.29 -170.1,-114.48 57.47,-38.31 128.33,-68.55 160.06,-133.97 10.74,-30.94 -17.88,-54.36 -44.77,-61.05 -117.02,-32.2 -237.95,-1.16 -355.78,5.18 1.04,-16.5 -4.03,-34.84 4.73,-50.07 35.66,-63.82 73.17,-126.6 107.91,-190.75 9.22,-22.97 -20.32,-41.9 -38.89,-29.09 -35.9,44.77 -51.93,104.09 -91.86,145.28 -15.24,-70.38 -37.28,-143.78 -87.94,-197.32 -29.77,-35.2 -88.86,-37.97 -121.17,-4.85 -51.93,46.96 -64.5,118.63 -92.66,179.1 -25.39,-46.05 -50.2,-92.67 -78.36,-137.21 -18.35,-20.31 -55.73,6.12 -39.34,29.54 32.07,63.7 72.46,123.13 104.08,187.06 1.16,19.39 -3.46,38.43 -6.57,57.36 -79.29,-16.39 -159.37,-28.51 -240.04,-34.74 -54.24,-1.84 -112.51,-4.04 -161.44,22.96 -21.7,13.16 -17.66,45.35 -2.31,61.85 51.36,65.56 130.29,98.33 199.87,139.64 -68.55,36.35 -145.62,71.31 -189.02,138.6 -25.28,36.23 15.81,68.77 48.81,74.77 120.37,25.85 243.72,2.54 363.28,-17.07 1.49,7.27 4.38,21.8 5.77,29.07 -25.16,61.28 -70.74,113.79 -92.43,176.11 0.11,4.72 0.45,14.19 0.57,18.92 v 0"
         style="fill:#f3ef14;fill-opacity:1;fill-rule:nonzero;stroke:none"
         id="path168" /><path
         d="m 4951.64,8101.67 c 21.36,7.49 44.09,-13.73 45.59,-34.85 2.88,-24.35 9.35,-49.28 4.95,-73.98 -15.1,-74.66 7.73,-151.28 -6.57,-226.17 -4.83,-27.01 -36,-26.08 -57.01,-24.59 -5.65,19.5 -13.73,39.47 -9,60.01 8.54,38.2 -9.24,75.13 -6.34,113.44 1.61,61.96 -17.54,134.79 28.38,186.14 v 0"
         style="fill:#f3ef14;fill-opacity:1;fill-rule:nonzero;stroke:none"
         id="path170" /><path
         d="m 6071.48,8067.62 c -14.54,23.08 22.5,48.47 39.81,28.51 28.85,-43.4 50.65,-90.93 79.74,-134.21 17.53,46.96 41.78,97.17 87.36,122.44 30.23,18.23 68.54,7.26 93.12,-15.35 36.47,-33.92 57.36,-80.9 72.83,-127.52 31.15,42.12 51.57,90.82 80.43,134.45 13.14,19.96 52.14,3.34 43.16,-21.47 -18.47,-41.89 -44.91,-79.86 -66.48,-120.25 -14.08,-27.69 -37.61,-52.85 -36.7,-85.85 95.45,12.58 189.6,39.12 286.76,37.62 50.32,-1.39 107.92,7.38 150.84,-24.82 27,-23.77 1.61,-59.08 -17.66,-78.81 -46.28,-43.39 -102.02,-75.82 -158.68,-103.86 53.09,-41.08 123.94,-67.51 155.22,-131.67 17.66,-39.47 -28.85,-64.28 -61.17,-69.58 -110.77,-18.82 -223.28,-1.96 -333.15,15 -1.72,-9.81 -5.31,-29.32 -7.16,-39.13 38.08,-74.08 85.4,-143.2 119.91,-219.02 -11.31,-13.16 -31.51,-31.85 -46.16,-11.42 -32.08,47.19 -57.47,98.66 -85.97,148.05 -18.35,-73.62 -38.66,-152.91 -94.52,-207.72 -28.74,-31.62 -83.66,-34.04 -114.02,-3.57 -52.73,46.16 -73.27,117.01 -91.28,182.21 -31.85,-41.54 -51.34,-90.82 -80.77,-133.98 -14.77,-29.77 -59.2,1.96 -41.2,26.66 33.36,62.78 70.29,123.59 105.12,185.68 -2.07,18.92 -3.92,37.85 -5.52,56.77 -109.3,-18 -219.62,-42 -330.85,-33.01 -30.02,5.09 -66.13,7.63 -84.94,34.97 -10.39,33.7 16.28,60.59 39.12,80.9 50.89,44.31 111.36,75.47 171.14,105.82 -67.98,38.08 -145.06,71.9 -189.95,138.72 -18.92,26.88 0.23,61.49 29.55,69.34 59.66,19.85 124.74,22.51 186.94,15.12 64.51,-3.92 129.14,-10.96 191.92,-26.89 2.76,8.07 8.53,24.12 11.4,32.2 -32.88,57.81 -67.39,114.82 -98.19,173.67 v 0"
         style="fill:#f3ef14;fill-opacity:1;fill-rule:nonzero;stroke:none"
         id="path172" /><path
         d="m 3371.14,8087.82 9.12,-0.46 c -0.12,-4.73 -0.46,-14.2 -0.57,-18.92 l -9.01,-0.13 -4.96,9.82 5.42,9.69 v 0"
         style="fill:#87893d;fill-opacity:1;fill-rule:nonzero;stroke:none"
         id="path174" /><path
         d="m 4823.55,7951.53 c -1.38,40.74 7.97,88.16 45.47,111.02 l 10.5,-8.2 c 2.88,-5.42 8.54,-16.15 11.43,-21.58 12.23,-88.51 3.46,-178.4 6.11,-267.61 7.39,-32.3 -30.69,-35.31 -53.19,-39.46 -35.66,70.5 -17.66,150.48 -20.32,225.83 v 0"
         style="fill:#f2ee14;fill-opacity:1;fill-rule:nonzero;stroke:none"
         id="path176" /><path
         d="m 4879.52,8054.35 10.27,-0.69 5.88,-11.08 -4.72,-9.81 c -2.89,5.43 -8.55,16.16 -11.43,21.58 v 0"
         style="fill:#909338;fill-opacity:1;fill-rule:nonzero;stroke:none"
         id="path178" /><path
         d="m 5031.95,7998.96 c 0.71,24.35 14.68,58.27 43.86,56.09 19.04,-8.54 16.16,-30.35 17.19,-47.66 2.44,-68.89 -3.69,-137.67 -1.71,-206.69 0.68,-21.11 -6.59,-41.42 -13.06,-61.27 -14.64,0.12 -38.64,-4.15 -41.08,16.04 -10.38,80.55 -8.87,162.49 -5.2,243.49 v 0"
         style="fill:#f2ee14;fill-opacity:1;fill-rule:nonzero;stroke:none"
         id="path180" /><path
         d="m 3606.32,8025.74 c 29.09,13.27 54.82,-10.74 71.79,-31.74 22.27,-24.35 25.85,-58.27 32.65,-89.21 -63.93,0.35 -127.86,-0.68 -191.79,0.7 15.01,47.55 33.12,105.59 87.35,120.25 v 0"
         style="fill:#161821;fill-opacity:1;fill-rule:nonzero;stroke:none"
         id="path182" /><path
         d="m 6215.38,7905.03 c 13.15,55.27 42.47,124.52 109.28,124.05 54.12,-12.46 74.43,-75.13 81.36,-124.17 -63.58,-0.12 -127.05,-0.22 -190.64,0.12 v 0"
         style="fill:#161720;fill-opacity:1;fill-rule:nonzero;stroke:none"
         id="path184" /><path
         d="m 4769.78,7984.19 c 4.61,-2.3 13.85,-7.04 18.46,-9.34 24.23,-85.98 9.81,-176.79 -0.35,-263.92 -16.38,-4.5 -32.3,-11.2 -44.66,-23.2 14.32,-17.07 32.09,-40.05 57.7,-35.08 42.24,6.81 84.02,19.27 127.28,15.35 56.1,6 127.41,32.53 174.48,-11.08 -8.53,-9.35 -17.76,-17.89 -27.81,-25.39 -54.8,-15.8 -113.66,-23.88 -162.59,-54.69 -3.1,-55.28 -14.53,-113.56 8.55,-166.29 27.92,-7.05 17.07,28.15 16.49,43.49 1.16,30.01 -2.06,64.06 13.62,90.71 52.62,45.7 129.01,40.74 187.53,72.94 9.46,59.77 -26.31,131.67 23.87,182.56 35.09,-11.78 28.29,-70.17 74.68,-64.17 -16.16,-92.89 -6.8,-187.4 -9.23,-281.1 -19.61,-60.25 -60.25,-125.21 -127.4,-137.8 -21.47,-1.15 -34.73,-17.42 -45.24,-34.15 11.08,-5.42 22.27,-10.86 33.46,-16.27 10.85,-39.24 12.01,-84.48 -12.58,-119.09 -35.08,-0.93 -68.87,-10.05 -102.81,-18.24 -50.43,10.5 -102.13,21.7 -153.83,11.89 1.61,45.46 -0.23,91.17 -10.15,135.71 -19.74,19.96 -41.2,38.08 -65.1,52.85 -17.77,90.36 -28.26,182.33 -25.61,274.42 1.73,100.39 18.47,199.64 22.97,299.81 1.49,29.08 13.49,55.73 28.27,80.08 v 0"
         style="fill:#f3ef14;fill-opacity:1;fill-rule:nonzero;stroke:none"
         id="path186" /><path
         d="m 3474.77,7484.17 c 53.89,9.7 105.59,27.92 159.02,39.58 43.85,-3.12 85.97,-18.23 129.13,-25.96 -0.8,-12.81 -1.49,-25.74 -2.31,-38.66 -49.15,-9.01 -98.43,-19.16 -148.28,-23.08 -45.36,1.96 -90.13,10.04 -135.37,12.57 -0.8,11.9 -1.49,23.78 -2.19,35.55 v 0"
         style="fill:#161821;fill-opacity:1;fill-rule:nonzero;stroke:none"
         id="path188" /><path
         d="m 6167.48,7482.79 c 56.44,11.65 111.02,30.92 167.69,41.31 42,-6 82.62,-19.16 124.75,-25.62 -1.17,-12.81 -2.08,-25.73 -3.01,-38.66 -66.02,-11.31 -133.16,-32.08 -200.45,-19.15 -27,3.8 -54.01,5.3 -81.13,6.68 -2.77,11.89 -5.3,23.66 -7.85,35.44 v 0"
         style="fill:#161821;fill-opacity:1;fill-rule:nonzero;stroke:none"
         id="path190" /><path
         d="m 6184.35,7394.51 c 38.64,-9.7 78.23,-16.28 118.04,-18.82 47.65,4.15 94.74,13.05 141.82,21.24 -8.66,-35.54 -8.77,-79.98 -32.31,-108.71 -66.35,-10.16 -136.28,-9.69 -201.83,3.69 -13.61,32.77 -21.46,67.63 -25.72,102.6 v 0"
         style="fill:#161821;fill-opacity:1;fill-rule:nonzero;stroke:none"
         id="path192" /><path
         d="m 3486.08,7394.16 c 86.67,-24.93 176.68,-20.09 263.46,1.39 -5.88,-36.93 -15.47,-73.06 -28.86,-108.03 -68.65,-9.57 -138.35,-6.34 -206.9,2.09 -10.39,34.49 -19.74,69.36 -27.7,104.55 v 0"
         style="fill:#161821;fill-opacity:1;fill-rule:nonzero;stroke:none"
         id="path194" /><path
         d="m 3540.09,7232.25 c -28.27,12.93 30.7,29.31 21.7,3.34 -5.43,-0.8 -16.28,-2.41 -21.7,-3.34 v 0"
         style="fill:#80873b;fill-opacity:1;fill-rule:nonzero;stroke:none"
         id="path196" /><path
         d="m 6236.26,7226.03 c -27.22,14.19 26.9,38.54 26.19,10.38 -6.56,-2.54 -19.61,-7.85 -26.19,-10.38 v 0"
         style="fill:#6c743f;fill-opacity:1;fill-rule:nonzero;stroke:none"
         id="path198" /><path
         d="m 6373.47,7244.14 c 4.86,0.57 14.55,1.62 19.51,2.08 l 0.92,-8.43 c -4.84,-0.58 -14.66,-1.84 -19.61,-2.54 l -0.82,8.89 v 0"
         style="fill:#9a9939;fill-opacity:1;fill-rule:nonzero;stroke:none"
         id="path200" /><path
         d="m 3540.09,7232.25 c 5.42,0.93 16.27,2.54 21.7,3.34 6.92,-1.03 20.65,-3.1 27.57,-4.26 20.66,-15.12 46.16,-13.27 67.28,0.11 11.2,2.77 33.81,8.43 45.12,11.2 -7.03,-14.42 -14.66,-28.39 -22.85,-42.23 -32.42,-26.44 -74.89,-13.97 -112.52,-11.66 -8.53,14.77 -17.64,29.07 -26.3,43.5 v 0"
         style="fill:#161720;fill-opacity:1;fill-rule:nonzero;stroke:none"
         id="path202" /><path
         d="m 3589.36,7231.33 c 19.74,10.27 47.2,9.35 67.28,0.11 -21.12,-13.38 -46.62,-15.23 -67.28,-0.11 v 0"
         style="fill:#3c463f;fill-opacity:1;fill-rule:nonzero;stroke:none"
         id="path204" /><path
         d="m 6236.26,7226.03 c 6.58,2.53 19.63,7.84 26.19,10.38 l 16.05,-4.61 c 20.54,-14.43 46.39,-15.01 67.29,-0.58 7.14,1.03 21.34,3.11 28.5,4.03 4.95,0.7 14.77,1.96 19.61,2.54 -2.88,-6.12 -8.65,-18.23 -11.54,-24.34 -36.93,-36.24 -101.9,-39.48 -136.51,1.38 l -9.59,11.2 v 0"
         style="fill:#161823;fill-opacity:1;fill-rule:nonzero;stroke:none"
         id="path206" /><path
         d="m 6278.5,7231.8 c 19.97,8.99 47.42,9.46 67.29,-0.58 -20.9,-14.43 -46.75,-13.85 -67.29,0.58 v 0"
         style="fill:#3c4640;fill-opacity:1;fill-rule:nonzero;stroke:none"
         id="path208" /><path
         d="m 6245.85,7214.83 c 34.61,-40.86 99.58,-37.62 136.51,-1.38 -8.54,-12.12 -17.43,-24.01 -26.31,-35.77 -39.7,0.57 -94.28,-11.32 -110.2,37.15 v 0"
         style="fill:#343b34;fill-opacity:1;fill-rule:nonzero;stroke:none"
         id="path210" /><path
         d="m 3566.39,7188.75 c 37.63,-2.31 80.1,-14.78 112.52,11.66 -7.04,-7.51 -14.07,-15.13 -21,-22.73 -29.89,3.45 -66.46,-9.47 -91.52,11.07 v 0"
         style="fill:#475138;fill-opacity:1;fill-rule:nonzero;stroke:none"
         id="path212" /><path
         d="m 2728.26,6946.64 c 1483.22,0.81 2966.32,0.12 4449.55,0.35 1.14,-246.03 -3.01,-492.18 2.76,-738.32 -0.46,-373.32 -0.46,-746.63 -0.1,-1119.95 2.65,-124.63 -11.55,-249.03 -35.21,-371.24 -43.04,-0.23 -85.97,-0.12 -128.9,-0.12 -0.34,115.4 0.23,230.91 -0.34,346.31 -107.67,-0.21 -215.22,-0.1 -322.78,-0.1 -0.34,96.23 0.12,192.36 -0.34,288.61 -100.74,-0.23 -201.5,-0.23 -302.24,0 -0.09,111.48 -0.09,223.07 0.12,334.66 -92.31,-0.23 -184.63,-0.12 -276.96,-0.12 -0.34,100.05 -0.21,199.99 -0.11,300.03 -99.13,0 -198.38,-0.11 -297.5,0 -0.33,86.79 0,173.44 -0.23,260.23 -105.48,0.11 -211.06,0 -316.54,0 0.23,111.59 -4.49,223.06 -2.64,334.65 -110.45,0.81 -220.99,-1.5 -331.42,1.16 -63.6,85.97 -129.14,170.45 -194.11,255.37 -57.47,-83.2 -108.71,-170.55 -165.94,-253.87 -117.83,-6.46 -236.58,-0.58 -354.74,-2.66 -1.28,-104.43 1.84,-208.86 -1.16,-313.19 l -4.04,-3.81 c -123.13,-2.54 -246.38,-0.23 -369.39,-0.92 0.12,-99.94 0.12,-199.99 0,-300.04 -106.97,-0.23 -213.95,0.12 -320.93,-0.1 0.13,-96.14 0.24,-192.26 0,-288.38 -105.35,0 -210.71,-0.25 -316.08,0.09 -0.45,-107.76 0.13,-215.43 -0.22,-323.21 -107.55,0 -215.22,-0.12 -322.77,0.11 -0.57,-92.33 0,-184.76 -0.23,-277.07 -76.16,-0.12 -152.33,0 -228.38,0 0,-95.2 0.23,-190.42 -0.11,-285.62 -40.16,-0.34 -80.43,0.11 -120.6,-0.12 -36.57,174.49 -28.85,353.7 -33.58,530.72 0.93,323.12 -4.03,646.24 -2.42,969.36 -1.61,219.02 3.23,438.28 -2.42,657.19 v 0"
         style="fill:#f3ef14;fill-opacity:1;fill-rule:nonzero;stroke:none"
         id="path214" /><path
         d="m 4805.33,6584.29 c 57.23,83.32 108.47,170.67 165.94,253.87 64.97,-84.92 130.51,-169.4 194.11,-255.37 110.43,-2.66 220.97,-0.35 331.42,-1.16 -1.85,-111.59 2.87,-223.06 2.64,-334.65 105.48,0 211.06,0.11 316.54,0 0.23,-86.79 -0.1,-173.44 0.23,-260.23 99.12,-0.11 198.37,0 297.5,0 -0.1,-100.04 -0.23,-199.98 0.11,-300.03 92.33,0 184.65,-0.11 276.96,0.12 -0.21,-111.59 -0.21,-223.18 -0.12,-334.66 100.74,-0.23 201.5,-0.23 302.24,0 0.46,-96.25 0,-192.38 0.34,-288.61 107.56,0 215.11,-0.11 322.78,0.1 0.57,-115.4 0,-230.91 0.34,-346.31 42.93,0 85.86,-0.11 128.9,0.12 -29.77,-146.68 -79.16,-289.89 -148.28,-422.59 -84.36,1.03 -168.71,-0.11 -253.07,0.59 0.22,122.19 0.12,244.41 0.12,366.62 -130.99,0.57 -261.96,-1.05 -392.94,0.8 1.27,109.04 0.11,218.1 0.68,327.15 -103.96,-0.11 -207.82,-0.22 -311.56,0 -0.23,102.25 0,204.49 -0.12,306.74 -105.48,0.11 -210.84,0 -316.31,0 -0.11,103.86 0,207.72 0,311.58 -101.1,-0.36 -202.18,0.8 -303.28,-0.7 -1.6,105.7 -0.21,211.4 -0.68,317.11 -96.36,0.47 -192.71,-1.38 -289.07,0.82 0.69,103.85 1.39,207.71 -0.34,311.57 -117.61,-2.08 -235.31,-0.35 -352.9,-1.04 0.58,-99.59 -1.27,-199.29 1.03,-299 -108.01,-2.19 -216.02,-0.23 -324.15,-0.92 -0.22,-107.78 0.46,-215.57 -0.35,-323.35 -109.97,0.69 -220.06,-0.34 -330.03,0.59 -0.46,-103.63 -0.82,-207.26 0.23,-310.9 -106.17,-2.41 -212.33,-0.34 -318.5,-1.14 -0.23,-107.67 0.11,-215.34 -0.23,-323.12 -112.98,0.46 -226.07,-0.46 -339.16,0.57 -0.47,-107.31 -1.5,-214.76 0.69,-322.07 -100.39,-3.35 -200.79,-0.69 -301.19,-1.39 0.35,-105.14 -0.93,-210.26 0.69,-315.39 -87.24,-2.31 -174.49,-0.46 -261.72,-1.03 -67.05,139.29 -111.36,288.72 -139.75,440.36 40.74,0.23 81.47,0.46 122.21,0.23 v 9.92 c 0.34,95.2 0.11,190.42 0.11,285.62 76.05,0 152.22,-0.12 228.38,0 0.23,92.31 -0.34,184.74 0.23,277.07 107.55,-0.23 215.22,-0.11 322.77,-0.11 0.35,107.78 -0.23,215.45 0.22,323.21 105.37,-0.34 210.73,-0.09 316.08,-0.09 0.24,96.12 0.13,192.24 0,288.38 106.98,0.22 213.96,-0.13 320.93,0.1 0.12,100.05 0.12,200.1 0,300.04 123.01,0.69 246.26,-1.62 369.39,0.92 l 4.04,3.81 c 3,104.33 -0.12,208.76 1.16,313.19 118.16,2.08 236.91,-3.8 354.74,2.66 v 0"
         style="fill:#631135;fill-opacity:1;fill-rule:nonzero;stroke:none"
         id="path216" /><path
         d="m 6479.64,6410.84 c 74.43,119.22 141.59,243.15 219.62,359.94 77.3,-130.75 156.7,-260.35 235.99,-390.05 -78.6,-150.02 -155.79,-300.85 -233.58,-451.33 -80.31,143.33 -156.02,289.19 -234.84,433.33 -12.11,17.3 5.65,33.34 12.81,48.11 v 0"
         style="fill:#161821;fill-opacity:1;fill-rule:nonzero;stroke:none"
         id="path218" /><path
         d="m 3052.65,6354.76 c 81.81,129.7 155.55,264.6 239.79,392.7 77.21,-130.63 156.25,-260.22 235.53,-389.58 -77.9,-150.48 -153.36,-302.35 -234.03,-451.33 -81.58,148.86 -162.13,298.2 -241.29,448.21 v 0"
         style="fill:#161821;fill-opacity:1;fill-rule:nonzero;stroke:none"
         id="path220" /><path
         d="m 4777.51,6236.13 c 117.59,0.69 235.29,-1.04 352.9,1.04 1.73,-103.86 1.03,-207.72 0.34,-311.57 96.36,-2.2 192.71,-0.35 289.07,-0.82 0.47,-105.71 -0.92,-211.41 0.68,-317.11 101.1,1.5 202.18,0.34 303.28,0.7 0,-103.86 -0.11,-207.72 0,-311.58 105.47,0 210.83,0.11 316.31,0 0.12,-102.25 -0.11,-204.49 0.12,-306.74 103.74,-0.22 207.6,-0.11 311.56,0 -0.57,-109.05 0.59,-218.11 -0.68,-327.15 130.98,-1.85 261.95,-0.23 392.94,-0.8 0,-122.21 0.1,-244.43 -0.12,-366.62 84.36,-0.7 168.71,0.44 253.07,-0.59 -150.48,-300.37 -384.41,-550.91 -646.69,-757.26 -83.55,-65.06 -170.57,-125.66 -259.2,-183.58 -97.28,-61.63 -196.87,-119.55 -298.41,-173.69 -97.07,-52.84 -198.61,-96.57 -299.23,-141.93 -74.91,-34.27 -152.33,-62.2 -229.2,-91.4 -20.88,-7.38 -41.42,-15.46 -62.19,-22.95 -30.59,-10.63 -61.28,-20.79 -91.85,-31.05 -32.32,-10.51 -64.86,-20.54 -97.16,-30.8 -34.87,-12.82 -72.49,-21.25 -107.92,-5.2 -23.88,7.5 -47.53,15.46 -71.31,22.73 -35.31,11.19 -70.39,22.84 -105.35,34.85 -29.19,10.15 -57.94,21.11 -87.02,31.39 -69.35,27.46 -139.17,53.42 -207.48,83.31 -36.12,16.04 -72.13,31.98 -108.01,48.12 -38.32,17.78 -76.4,36 -114.13,54.71 -53.2,26.54 -106.06,53.78 -158.34,81.92 -51.69,30.59 -104.43,59.08 -155.09,91.29 -157.05,95.32 -306.5,203.33 -445.66,323.35 -224.92,199.63 -419.94,436.67 -547.92,710.28 87.23,0.57 174.48,-1.28 261.72,1.03 -1.62,105.13 -0.34,210.25 -0.69,315.39 100.4,0.7 200.8,-1.96 301.19,1.39 -2.19,107.31 -1.16,214.76 -0.69,322.07 113.09,-1.03 226.18,-0.11 339.16,-0.57 0.34,107.78 0,215.45 0.23,323.12 106.17,0.8 212.33,-1.27 318.5,1.14 -1.05,103.64 -0.69,207.27 -0.23,310.9 109.97,-0.93 220.06,0.1 330.03,-0.59 0.81,107.78 0.13,215.57 0.35,323.35 108.13,0.69 216.14,-1.27 324.15,0.92 -2.3,99.71 -0.45,199.41 -1.03,299 v 0"
         style="fill:#f3ef14;fill-opacity:1;fill-rule:nonzero;stroke:none"
         id="path222" /><path
         d="m 1354.55,5478.66 c 68.08,46.85 156.83,74.31 237.26,43.61 117.36,-42.34 210.6,-136.62 273.73,-242.1 60,-105.12 29.19,-230.23 11.77,-342.62 -21.93,-102.47 -12.23,-207.83 -7.16,-311.58 129.94,-26.31 269.8,-33.7 382.32,-111.59 89.78,-57.59 194.56,-136.63 193.06,-254.8 2.08,-144.24 -14.65,-288.84 -46.27,-429.63 l 4.03,-6.93 c 202.18,-87.11 398.25,-192.25 571.34,-329.57 167.33,-136.87 335.58,-272.92 510.18,-400.67 311.58,-228.02 636.08,-444.5 993.24,-594.77 194.1,-78.93 404.58,-140.55 616.11,-111.35 208.18,31.51 405.51,110.89 595.93,198.04 244.52,115.39 478.78,252.02 700.23,406.99 175.99,121.64 333.63,266.81 503.26,396.85 186.48,144.14 375.62,287.12 582.41,400.9 -33.81,156.82 -56.77,317.81 -48.35,478.55 14.89,109.18 114.14,178.66 200.45,233.35 111.25,74.32 248.35,79.15 375.03,107.08 -1.48,98.91 14.21,198.85 -6.91,296.7 -16.62,114.94 -51.93,241.87 6.59,350.7 59.77,104.89 150.94,196.07 263.21,243.13 75.37,32.21 162.95,16.75 230.8,-26.29 96.59,-60.02 175.87,-149.79 220.76,-254.59 34.72,-100.97 23.53,-210.24 15.8,-314.69 36.02,-180.82 61.98,-370.19 20.31,-552.64 -30.45,-127.27 -78.92,-249.6 -135.13,-367.55 -10.26,-18.69 -8.99,-40.85 0.47,-59.66 50.89,-119.54 55.51,-254.8 29.2,-381.03 -26.44,-135.15 -66.59,-269.23 -134.45,-389.71 -23.66,-39.25 -49.95,-81.93 -93.81,-100.87 -61.74,-25.15 -128.91,-31.03 -193.98,-42.22 -156.61,-22.5 -315.28,-60.59 -448.32,-149.91 -319.9,-203.21 -624.21,-431.02 -913.62,-675.54 -113.44,-99.37 -222.61,-204.49 -348.39,-288.62 -336.16,-233.67 -733.94,-369.38 -1138.53,-419.81 -229.41,-27.7 -462.16,-38.32 -692.05,-10.28 -420.28,50.43 -821.41,207.49 -1188.38,414.28 -215.44,121.4 -420.38,260.92 -615.18,413.36 -132.37,106.64 -263.92,214.76 -405.4,309.39 -188.44,128.67 -384.85,246.26 -590.37,345.85 -107.8,52.85 -220.42,96.25 -337.2,124.98 -68.32,18.57 -142.87,30.81 -198.03,78.82 -52.04,47.65 -76.51,116.31 -98.09,181.51 -51.35,175.29 -90.7,359.37 -73.97,542.73 11.2,60.11 33.47,117.35 50.55,175.87 -54.12,123.7 -103.06,251.22 -124.17,385.2 -20.89,160.05 -0.23,322.19 32.54,479.12 -4.04,103.86 -19.27,212.12 14.07,312.98 39.82,101.31 114.14,187.5 203.11,249.03 v 0"
         style="fill:#f7b219;fill-opacity:1;fill-rule:nonzero;stroke:none"
         id="path224" /><path
         d="m 1463.71,5449.69 c 75.37,28.03 151.64,-15.46 209.46,-61.17 60,-51.57 118.74,-111.7 143.66,-188.67 13.51,-60.36 4.97,-122.9 -3.34,-183.49 -124.28,-3.44 -269.45,-13.27 -356.69,-114.35 -35.9,-35.56 -69.94,-73.52 -96.25,-116.9 -49.85,38.53 -101.09,76.97 -143.67,123.13 -10.04,103.29 -26.42,213.24 13.38,312.38 49.63,98.44 129.36,187.53 233.45,229.07 v 0"
         style="fill:#161821;fill-opacity:1;fill-rule:nonzero;stroke:none"
         id="path226" /><path
         d="m 8168.97,5344.34 c 52.04,46.26 113.2,92.88 185.79,95.43 78.24,-2.65 143.1,-55.28 196.07,-108.26 54.81,-61.38 108.36,-133.16 112.16,-218.67 3.11,-76.17 3.24,-153.13 -9.69,-228.61 -46.98,-40.03 -92.32,-82.16 -142.75,-118.06 -37.04,62.78 -90.71,113.44 -144.37,161.69 -90.48,58.73 -203.1,67.15 -308.12,71.31 -8.41,56.2 -16.37,113.78 -6.34,170.32 16.73,70.05 66.8,125.91 117.25,174.85 v 0"
         style="fill:#161821;fill-opacity:1;fill-rule:nonzero;stroke:none"
         id="path228" /><path
         d="m 5298.08,5388.64 c 24,9 49.27,-1.74 72.24,-9.33 -18.92,-48.83 7.04,-95.79 33.01,-135.85 23.41,-33.57 27.34,-80.54 3.45,-115.03 -26.77,-40.97 -30.58,-90.48 -47.9,-135.14 -16.73,-43.51 -2.76,-90.14 -3.56,-135.14 -15.7,4.04 -31.05,8.09 -46.41,12.58 -19.72,-30.81 4.74,-67.63 8.78,-100.51 -15.35,-2.07 -30.58,-4.16 -45.71,-6.24 4.86,-29.3 10.75,-60 -1.96,-88.39 -58.02,-2.07 -69.92,63.02 -101.65,97.74 -34.86,-25.03 -59.78,-67.85 -106.53,-72.7 -0.1,29.54 4.99,62.78 -18.92,85.3 -39.81,-17.55 -77.19,-53.21 -123.13,-48.14 9.48,29.54 19.86,58.63 29.55,87.93 -33.93,51.36 -84.25,-31.26 -123.13,6.01 12.93,47.08 45.81,84.6 80.66,117.13 48.46,28.73 104.43,42.34 159.48,52.39 40.97,10.15 87.02,42.7 80.66,90.25 -19.38,14.18 -26.77,-14.09 -34.84,-25.51 -14.89,-28.17 -52.29,-54.23 -84.23,-39.01 -16.07,6 -30.71,14.43 -44.91,23.44 22.75,8.41 52.27,9.33 66.59,31.96 14.88,18.58 5.77,42.58 2.32,63.24 -5.2,21 -4.51,44.89 -20.9,60.92 -37.62,-6.92 -75.35,-27 -114.12,-18.7 -36.7,5.54 -27.01,50.1 -28.98,76.39 27.24,15.82 53.44,35.79 84.94,42.02 38.42,4.96 58.16,-39.92 94.04,-44.89 30.82,14.66 57.82,36.24 90.14,47.78 -13.04,9.44 -24.12,32.19 -42.81,27.35 -28.16,-7.97 -56.67,-17.66 -85.86,-9.25 8.19,24.94 33.45,46.17 60.69,37.39 70.4,-14.53 141.72,3.71 209,24.01 v 0"
         style="fill:#161821;fill-opacity:1;fill-rule:nonzero;stroke:none"
         id="path230" /><path
         d="m 4440.89,5294.58 c -5.53,44.9 49.16,53.45 82.4,51.24 44.88,-7.5 96.93,-27.11 113.78,-73.72 22.15,-63.36 1.27,-130.53 -18.23,-191.79 -16.51,-78.6 22.38,-154.41 56.19,-223.07 16.74,-28.75 -2.88,-59.91 -17.19,-85.17 -20.66,-30.59 -26.77,-67.39 -40.85,-100.85 33.24,-29.79 80.67,-11.9 120.6,-14.91 1.26,-16.94 1.38,-34.15 3.22,-51.34 27.59,-0.93 54.24,5.65 80.09,14.89 17.65,9.8 39.12,-7.05 37.28,-26.43 3.46,-31.96 16.61,-61.63 33.57,-88.86 34.74,12.24 47.78,65.43 88.63,60.46 39.7,-29.52 56.66,-87.11 109.39,-101.31 9.25,27.47 13.17,56.66 25.96,82.87 18.37,-7.28 35.79,-16.52 52.86,-26.56 4.97,-34.38 -2.07,-68.32 -12.22,-101.08 -11.44,-75.48 -19.51,-153.24 -3,-228.85 19.16,-78.93 79.28,-137.43 129.12,-198.25 36.93,-43.27 46.16,-105.93 93.12,-141.25 58.86,-1.84 127.53,9.92 162.04,63.13 30.8,55.85 14.64,125.79 -15.36,178.52 -36.12,42.11 -98.08,10.62 -143.9,31.39 -30.93,11.65 -78.6,24.35 -81.01,63.81 40.62,-3.81 87.71,-28.38 124.17,-0.34 -51.48,48.82 -138.82,73.86 -148.51,154.4 40.15,-26.31 85.84,-47.76 135.35,-37.96 -35.31,58.39 -103.5,103.98 -99.82,180.14 21.24,-13.74 41.44,-32.89 68.66,-32.09 9.94,53.89 16.62,108.48 18.35,163.18 12.47,39.34 31.87,76.39 38.32,117.7 34.15,59.22 48.22,130.41 97.28,180.38 30.36,31.74 64.74,61.49 106.16,77.31 31.85,12.24 66.48,9.35 99.6,14.89 70.97,-29.78 77.67,-115.17 88.75,-180.94 4.26,-157.41 -85.17,-294.63 -128.35,-441.3 -29.88,19.74 -20.08,59.43 -26.53,89.55 -12.36,16.84 -33.58,5.9 -50.09,5.9 -9.8,79.61 58.98,133.04 83.9,200.2 -29.32,5.08 -57,-6.23 -78.58,-25.38 -3.7,2.65 -11.2,8.08 -15.01,10.74 21.82,51.34 70.86,80.31 111.01,115.4 37.97,32.42 52.74,98.55 14.2,136.16 -22.62,16.15 -51.82,37.16 -80.2,22.96 -109.63,-41.19 -172.4,-154.97 -196.17,-264.14 -37.16,-95.2 -33.6,-200.45 -10.62,-298.66 33.12,-135.35 156.13,-237.25 156.59,-382.67 -6.34,-82.39 -40.85,-172.62 -118.73,-212.2 -34.51,-26.32 -83.45,-6.35 -117.95,-32.43 -26.65,-50.77 -41.44,-113.67 -25.05,-169.86 25.85,-27.47 72.01,-17.21 96.13,-45.14 2.55,-42.81 17.78,-86.54 7.16,-129.12 -22.27,-18.12 -46.51,13.27 -70.63,14.77 -23.66,-54.48 10.28,-109.28 23.55,-161.9 -22.04,-2.09 -46.39,6.34 -66.59,-4.63 -14.2,-47.3 11.43,-95.43 19.63,-141.82 -26.78,-15.34 -53.09,13.75 -78.6,4.38 -23.76,-33.45 4.97,-77.42 -5.77,-111.7 -34.97,-19.04 -81.24,20.77 -113.55,-11.88 -44.31,-47.21 -111.93,-65.54 -174.14,-47.42 -7.5,44.77 46.73,53.19 58.63,86.77 -40.28,10.15 -66.02,-23.76 -100.28,-35.66 -20.89,3.24 -53.44,12.81 -46.85,40.28 8.54,29.77 37.39,48.81 67.04,52.73 18.24,6.11 44.19,-2.64 57.59,13.27 -18.58,4.27 -36.82,7.98 -54.82,13.74 -34.4,-7.28 -69.93,-21.92 -105.12,-10.39 -5.31,48.35 48.35,66.12 83.32,82.52 56.65,11.86 106.03,-26.55 159.46,-37.17 45.94,-10.51 72.13,36.01 103.75,60.11 4.5,91.19 33.94,188.92 -10.15,275.12 -52.63,93.14 -177.72,117.37 -222.72,216.83 -27.58,67.05 8.78,134.46 31.03,196.76 21.93,54.47 -11.4,108.47 -34.26,156.48 -10.86,16.28 -23.65,48.01 -47.77,38.09 0.92,-9.35 2.76,-28.16 3.56,-37.52 -52.96,47.33 -118.85,84.25 -153.7,148.64 -7.96,15.36 -21.24,32.43 -9.69,49.51 20.42,18.01 51.23,18.81 70.51,38.78 17.88,31.96 28.73,68.2 31.84,104.54 -4.61,4.74 -13.96,13.96 -18.58,18.58 -10.27,-32.07 -12.46,-67.96 -31.5,-96.7 -27.81,-28.27 -69.36,-34.15 -105.13,-46.96 -18.92,-18.24 -22.96,-46.05 -37.16,-67.51 -28.15,-26.08 -60.01,19.15 -92.2,14.07 -4.85,-23.76 7.39,-53.43 -10.38,-73.38 -45.36,-8.89 -54.82,51.34 -92.56,63.46 -20.42,-15.93 -20.42,-43.97 -34.5,-64.17 -35.88,-10.03 -51.35,37.16 -84.12,44.55 -37.28,-17.54 -78.93,-41.2 -120.48,-22.5 5.42,30.7 23.19,57.7 28.04,88.29 -30.23,-9.82 -55.5,-47.56 -89.55,-36.48 -8.89,41.2 35.09,68.32 38.31,107.9 -44.31,14.66 -39.81,-57.36 -79.85,-54.92 -30.7,0 -13.16,36.45 -12.47,53.99 35.21,49.05 96.24,79.4 156.94,65.56 46.97,-14.77 89.67,-49.17 141.6,-44.77 32.55,5.29 63.94,19.96 87.82,42.92 56.43,52.27 117.24,99.6 178.17,146.54 11.77,9.71 26.08,18.49 30.7,33.94 -30.11,1.28 -59.09,-9.11 -89.09,-7.97 -54.35,1.63 -104.43,25.05 -154.87,42.81 -3.1,38.32 48.24,37.52 55.28,69.48 -11.65,36.02 -58.38,26.31 -83.31,45.12 9,31.63 62.19,57.7 33.46,92.21 -24.11,1.85 -47.77,7.96 -66.23,24.46 20.65,21.7 44.54,41.9 56.77,70.05 15.35,31.97 10.5,68.67 12,102.93 -48.47,57.24 -151.52,82.41 -147.36,171.71 40.38,5.9 78.12,-10.03 115.4,-23.19 -9.35,34.86 -58.51,37.85 -66.71,69.24 16.51,43.86 79.52,31.73 117.13,31.16 -11.88,21.11 -37.51,26.08 -57.35,36.8 v 0"
         style="fill:#161821;fill-opacity:1;fill-rule:nonzero;stroke:none"
         id="path232" /><path
         d="m 1581.77,4903.61 c 66.01,29.89 139.64,32.9 210.72,39.14 -12.58,-100.4 -2.65,-201.96 0.8,-302.7 -94.39,16.62 -188.79,33.81 -280.99,60.01 -31.39,8.41 -60.24,23.43 -87.82,40.03 13.28,26.9 31.28,50.9 52.27,72.24 32.2,33.13 61.17,72.59 105.02,91.28 v 0"
         style="fill:#161821;fill-opacity:1;fill-rule:nonzero;stroke:none"
         id="path234" /><path
         d="m 8078.73,4921.85 c 65.65,0.7 132.46,-8.42 194.67,-30.12 48.69,-15.23 81.11,-56.42 115.4,-91.5 22.73,-23.55 43.4,-49.52 57.92,-79.06 -110.65,-65.07 -242.9,-70.27 -364.88,-101.43 -5.54,100.63 8.89,201.71 -3.11,302.11 v 0"
         style="fill:#161821;fill-opacity:1;fill-rule:nonzero;stroke:none"
         id="path236" /><path
         d="m 4693.84,4770.57 c 20.78,36.81 48.93,78.94 93.94,86.08 -0.58,-31.39 -36.93,-69.01 0.7,-91.62 32.77,12.35 67.16,25.03 102.81,20.08 -13.84,-24 -27.69,-48.47 -35.31,-75.36 50.2,-25.61 102.59,-0.35 152.67,11.78 -1.73,-20.33 -2.55,-40.98 -1.73,-61.51 48.12,-4.62 94.86,15.69 133.75,42.46 15.92,12.01 37.5,5.42 48.81,-9.58 18.58,-21.68 50.65,-34.97 51.93,-67.5 -21.11,1.04 -45,7.38 -61.85,-9.35 0.91,-18.69 1.39,-37.62 1.5,-56.67 -30,14.66 -55.62,39.23 -89.45,44.43 -18.22,-25.96 -11.65,-69.23 -45.8,-81.7 -29.07,24.93 -28.63,68.89 -60.12,91.86 -33.58,-15 -54.7,-48.82 -90.47,-60.13 -14.78,36.36 -3.93,78.49 -25.51,112.41 -25.62,-6.82 -52.5,-29.09 -79.16,-15.35 -10.62,22.05 3.23,46.97 0.23,70.27 -41.31,5.67 -76.85,-26.65 -118.05,-29.54 -8.89,28.62 9.69,54.34 21.11,78.94 v 0"
         style="fill:#161821;fill-opacity:1;fill-rule:nonzero;stroke:none"
         id="path238" /><path
         d="m 1181.57,4441.56 c -16.85,125.32 -9.01,254 16.5,377.59 70.4,-60.35 142.29,-120.37 223.99,-164.9 64.63,-32.2 136.75,-44.31 206.56,-59.9 141.48,-29.54 284.46,-51.82 426.05,-80.66 83.79,-14.77 157.64,-61.52 224.8,-111.59 34.74,-30.36 73.63,-62.55 85.98,-109.06 6.69,-34.26 4.38,-69.57 4.03,-104.43 -5.99,-112.52 -15.81,-225.5 -42.12,-335.34 -332.35,125.32 -681.19,206.22 -1034.32,243.47 -48.46,110.79 -91.39,225.15 -111.47,344.82 v 0"
         style="fill:#161821;fill-opacity:1;fill-rule:nonzero;stroke:none"
         id="path240" /><path
         d="m 8353.03,4601.16 c 126.93,28.16 224.21,120.6 321.96,200.1 22.5,-133.75 36.34,-272 9.8,-406.2 -27.45,-131.9 -77.89,-257.68 -135.02,-379.32 -239.21,15.58 -481.43,-4.15 -713.04,-67.27 -101.44,-27.81 -196.87,-72.7 -290.69,-119.57 -24.7,90.94 -32.55,185.23 -41.09,278.6 -1.37,56.42 -8.3,113.65 1.63,169.5 15.46,50.33 58.73,84.71 98.09,116.56 61.38,43.51 127.4,84.93 202.29,99.71 181.75,37.16 365.93,62.65 546.07,107.89 v 0"
         style="fill:#161821;fill-opacity:1;fill-rule:nonzero;stroke:none"
         id="path242" /><path
         d="m 1248.27,3784.84 c -4.5,81.57 26.89,158.32 51.24,234.48 247.41,-26.32 492.4,-74.54 730.82,-145.51 251.68,-75.36 497.02,-176.33 719.97,-316.19 148.17,-90.48 275.57,-209.23 412.32,-315.16 339.96,-267.73 692.86,-522.99 1078.98,-720.33 205.29,-101.89 422.13,-191.09 651.88,-215.32 183.61,-18.58 365.46,28.15 537.53,88.04 257.58,92.08 501.87,217.98 735.79,359.23 186.13,113.46 366.62,237.38 532.67,378.86 189.03,155.09 380.02,308.23 582.41,445.67 169.76,113.9 346.44,222.61 541.69,286.88 226.65,68.55 465.88,88.63 701.74,76.28 45.59,-81.82 66.7,-176.79 63.6,-270.26 -13.39,-148.98 -53.44,-296.01 -115.76,-431.93 -27.45,-54.82 -58.84,-124.06 -128.21,-131.67 -197.43,-34.86 -405.4,-55.51 -579.07,-165.03 -311.1,-193.63 -605.38,-413.6 -888.22,-646.35 -115.06,-91.51 -216.48,-199.06 -335.23,-285.95 -264.26,-201.04 -575.03,-336.29 -897.81,-410.02 -246.61,-55.73 -500.13,-79.51 -752.63,-74.54 -450.63,15.34 -886.14,166.75 -1280.58,378.61 -201.48,108.03 -393.97,232.66 -576.98,369.51 -152.57,111.71 -293.36,238.75 -449.03,346.21 -208.63,147.59 -427.78,280.77 -657.42,392.93 -118.52,58.97 -242.69,106.62 -371.47,137.31 -55.97,16.04 -119.21,24.36 -161.91,67.63 -41.54,42.81 -56.32,102.82 -75,157.64 -39.36,132.82 -65.9,270.26 -71.32,408.98 v 0"
         style="fill:#161821;fill-opacity:1;fill-rule:nonzero;stroke:none"
         id="path244" /><path
         d="m 4659.57,4007.56 c 81.47,15.8 164.67,-6.7 246.61,-4.29 15.36,-28.49 6,-62.77 18.69,-92.09 8.08,-15.92 28.27,-11.29 42.93,-13.61 -25.16,-56.66 -37.39,-117.7 -50.2,-178.05 -48.35,-4.62 -91.5,23.87 -139.16,22.96 -28.97,-0.59 -65.44,-31.62 -46.74,-62.55 25.62,-52.96 49.27,-110.66 42.12,-170.8 -30.82,9.69 -56.9,32.33 -90.13,33.6 -21.12,-44.31 26.08,-88.76 7.51,-133.18 -23.09,-40.73 -55.28,34.86 -87.25,9.69 -11.08,-20.99 -4.5,-45.23 -7.04,-67.84 -15.81,-20.08 -42.12,1.37 -61.62,3.69 -37.97,-55.85 -108.48,-85.05 -174.72,-70.05 -5.54,41.42 28.97,66.46 50.66,96.02 -44.89,9.33 -72.23,-46.28 -118.97,-35.54 -10.39,47.99 38.89,69.46 62.89,97.39 -34.16,11.19 -61.74,-16.74 -92.55,-25.74 -7.5,40.62 36.7,55.17 65.66,67.75 39.12,19.02 75.82,-19.63 115.52,-10.62 47.08,8.66 90.93,39.23 115.05,80.54 38.19,99.01 17.77,206.56 18.92,309.39 10.97,53.65 36.93,109.84 81.82,143.33 v 0"
         style="fill:#161821;fill-opacity:1;fill-rule:nonzero;stroke:none"
         id="path246" /><path
         d="m 1692.09,3321.15 c 48.24,118.52 95.09,237.73 141.6,356.82 58.5,-21 115.51,-45.92 173.68,-67.85 35.77,-14.09 75,-29.32 96.24,-63.58 32.89,-50.2 -0.12,-130.65 -62.78,-134.91 48.81,-43.74 37.27,-127.41 -14.88,-163.29 -41.89,-30.35 -98.79,-23.78 -143.79,-4.27 -63.01,26.54 -127.98,48.35 -190.07,77.08 v 0"
         style="fill:#96d6f5;fill-opacity:1;fill-rule:nonzero;stroke:none"
         id="path248" /><path
         d="m 7895.46,3655.46 c 40.28,12.59 94.05,13.52 121.75,-24.11 27.47,-31.85 27.93,-80.77 1.86,-113.67 73.28,-2.99 117.12,-88.86 87.92,-152.78 -17.19,-40.51 -57.11,-65.43 -97.39,-78.47 -64.97,-22.16 -128.44,-48.7 -194.33,-67.86 -41.42,121.64 -88.97,241.41 -128.11,363.74 70.3,21.81 138.62,49.63 208.3,73.15 v 0"
         style="fill:#96d6f5;fill-opacity:1;fill-rule:nonzero;stroke:none"
         id="path250" /><path
         d="m 3452.74,3628.7 c 139.16,-120.02 288.61,-228.03 445.66,-323.35 -23.66,-12.12 -19.38,-43.61 -25.62,-65.9 -24.35,3.35 -47.31,0.7 -52.16,-27.22 -13.04,-6.48 -26.19,-12.82 -39.12,-19.4 -136.86,87.24 -270.49,180.61 -392.24,288.17 27.7,-8.55 57.36,-14.56 85.86,-5.9 -10.96,11.99 -26.2,17.43 -41.31,21.47 -8.54,25.6 10.15,44.3 26.31,61.26 -4.85,1.16 -14.66,3.48 -19.62,4.62 3.12,22.28 7.27,44.43 12.24,66.25 v 0"
         style="fill:#f9b728;fill-opacity:1;fill-rule:nonzero;stroke:none"
         id="path252" /><path
         d="m 7831.19,3533.61 c 28.74,9.12 56.54,24.11 87.36,25.27 13.62,-7.62 25.28,-28.62 13.62,-42.59 -24.11,-19.04 -55.16,-26.08 -84.02,-34.49 -5.65,17.42 -11.42,34.61 -16.96,51.81 v 0"
         style="fill:#161720;fill-opacity:1;fill-rule:nonzero;stroke:none"
         id="path254" /><path
         d="m 1891.27,3494.82 c 6.81,17.66 13.62,35.44 20.31,52.99 27.92,-13.28 61.74,-18.71 83.55,-41.91 7.15,-17.99 -7.27,-32.53 -20.19,-42.57 -28.05,10.26 -56.09,20.2 -83.67,31.49 v 0"
         style="fill:#161720;fill-opacity:1;fill-rule:nonzero;stroke:none"
         id="path256" /><path
         d="m 7500.93,3482.96 c 34.97,19.95 69.23,40.95 103.96,61.26 42.6,-72.82 87.37,-144.24 128.91,-217.64 26.88,-46.03 29.77,-107.44 -4.51,-150.47 -39.69,-48.71 -97.86,-82.4 -159.01,-95.9 -56.79,-11.9 -110.9,23.53 -139.52,70.51 -43.74,70.74 -84.94,143.21 -128.21,214.18 35.2,19.38 69.12,40.96 104.32,60.46 43.5,-71.9 83.89,-145.75 130.99,-215.32 22.73,-33.81 74.66,-21.48 91.39,11.3 14.77,22.62 -2.78,47.08 -12.35,67.73 -38.55,64.75 -76.98,129.49 -115.97,193.89 v 0"
         style="fill:#96d6f5;fill-opacity:1;fill-rule:nonzero;stroke:none"
         id="path258" /><path
         d="m 2195.12,3534.89 c 36.11,-16.39 71.89,-33.37 107.66,-50.45 -32.88,-77.99 -74.32,-152.44 -104.32,-231.71 -22.27,-54.36 70.16,-96.13 96.71,-43.28 41.31,73.63 71.2,153.26 110.09,228.26 35.19,-19.04 73.39,-32.19 107.66,-53.2 -34.27,-69.81 -66.01,-140.9 -99.24,-211.29 -16.84,-35.2 -40.15,-70.97 -78.01,-86.1 -53.31,-23.19 -112.75,-3.33 -161.67,21.36 -44.43,22.5 -89.32,58.51 -97.74,110.56 -7.74,43.5 10.27,85.15 28.38,123.58 30.47,63.93 59.43,128.55 90.48,192.27 v 0"
         style="fill:#96d6f5;fill-opacity:1;fill-rule:nonzero;stroke:none"
         id="path260" /><path
         d="m 6091.09,3354.05 c 88.63,57.92 175.65,118.52 259.2,183.58 27.1,-34.72 3.8,-84.92 15.11,-125.77 19.61,-2.88 39.35,-6.11 58.96,-9.69 -97.96,-82.41 -205.86,-152.33 -313.99,-220.65 -20.42,6.47 -40.73,12.7 -60.93,19.04 8.07,4.28 16.37,8.43 24.69,12.47 -2.76,36.35 16.73,72.35 3.58,107.78 14.2,4.39 28.63,8.55 43.04,12.7 -7.39,5.06 -22.27,15.34 -29.66,20.54 v 0"
         style="fill:#f9b422;fill-opacity:1;fill-rule:nonzero;stroke:none"
         id="path262" /><path
         d="m 7873.66,3408.87 c 28.5,12.91 57.58,25.72 88.75,30.46 31.38,3.92 46.16,-47.44 17.77,-61.62 -26.21,-13.97 -54.82,-22.39 -82.88,-31.16 -7.25,21.01 -15.21,41.88 -23.64,62.32 v 0"
         style="fill:#161821;fill-opacity:1;fill-rule:nonzero;stroke:none"
         id="path264" /><path
         d="m 1863.12,3426.52 c 28.61,-11.2 58.61,-19.61 84.93,-35.89 24.58,-17.19 6.92,-58.04 -20.31,-60.59 -30.23,7.04 -58.39,20.43 -87.82,29.89 6.57,22.73 14.31,44.89 23.2,66.59 v 0"
         style="fill:#161720;fill-opacity:1;fill-rule:nonzero;stroke:none"
         id="path266" /><path
         d="m 2564.51,3360.86 c 63.24,-36.59 126.59,-73.16 189.83,-109.74 30.58,-17.44 60.24,-42.36 70.04,-77.67 21.59,-64.97 -33.35,-142.05 -102.35,-142.18 31.16,-66.12 -21.47,-125.2 -36.81,-186.82 -34.51,20.65 -69.7,40.39 -103.98,61.39 11.42,42.01 47.08,80.9 35.66,126.13 -19.62,23.66 -49.28,34.95 -75.47,49.51 -21.24,-38.67 -44.08,-76.63 -64.97,-115.52 -35.43,19.51 -69.93,40.28 -105.13,60.13 64.39,111.59 128.78,223.18 193.18,334.77 v 0"
         style="fill:#96d6f5;fill-opacity:1;fill-rule:nonzero;stroke:none"
         id="path268" /><path
         d="m 5792.68,3180.36 c 101.54,54.14 201.13,112.06 298.41,173.69 7.39,-5.2 22.27,-15.48 29.66,-20.54 -14.41,-4.15 -28.84,-8.31 -43.04,-12.7 13.15,-35.43 -6.34,-71.43 -3.58,-107.78 -8.32,-4.04 -16.62,-8.19 -24.69,-12.47 20.2,-6.34 40.51,-12.57 60.93,-19.04 -104.55,-63.69 -210.5,-126.36 -322.09,-177.13 0.25,25.28 6.47,50.43 2.44,75.59 5.18,10.62 11.06,20.77 18,30.23 -9.24,15.8 -2.55,33.47 0.46,49.86 -4.17,5.08 -12.35,15.23 -16.5,20.29 v 0"
         style="fill:#f9ba2e;fill-opacity:1;fill-rule:nonzero;stroke:none"
         id="path270" /><path
         d="m 3872.78,3239.45 c 6.24,22.29 1.96,53.78 25.62,65.9 50.66,-32.21 103.4,-60.7 155.09,-91.29 -6.45,-2.88 -19.26,-8.76 -25.61,-11.77 9.93,-5.2 20.07,-10.03 30.12,-15.34 -10.5,-22.96 -6.34,-47.77 -5.89,-72.13 -6.22,-22.26 -18.46,-42.13 -28.5,-62.9 -81.71,45.25 -163.52,90.6 -242.11,140.91 12.93,6.58 26.08,12.92 39.12,19.4 4.85,27.92 27.81,30.57 52.16,27.22 v 0"
         style="fill:#fabf3a;fill-opacity:1;fill-rule:nonzero;stroke:none"
         id="path272" /><path
         d="m 2621.86,3219.04 c 31.74,-18.94 70.51,-32.67 87.59,-68.32 -9.12,-14.43 -15.7,-32.78 -33.59,-39.01 -33.8,5.07 -61.15,27.59 -90.47,43.27 11.55,21.7 23.66,43.16 36.47,64.06 v 0"
         style="fill:#161821;fill-opacity:1;fill-rule:nonzero;stroke:none"
         id="path274" /><path
         d="m 7030.89,3154.4 c 31.41,23.67 63.14,46.86 93.26,72.25 61.39,-73.05 116.67,-151.07 174.48,-226.98 45.46,33.45 89.89,68.3 135.01,102.34 21.35,-25.84 41.21,-52.85 61.62,-79.5 -76.62,-59.2 -153.72,-117.95 -231.25,-175.99 -76.63,103.41 -156.02,204.72 -233.12,307.88 v 0"
         style="fill:#96d6f5;fill-opacity:1;fill-rule:nonzero;stroke:none"
         id="path276" /><path
         d="m 4027.88,3202.29 c 6.35,3.01 19.16,8.89 25.61,11.77 52.28,-28.14 105.14,-55.38 158.34,-81.92 -11.08,-6.24 -22.05,-12.83 -32.9,-19.49 0.35,-9.12 0.82,-18.37 1.16,-27.6 5.43,3.69 16.27,11.08 21.69,14.77 -5.18,-12.93 -10.38,-25.97 -15.35,-39.1 4.74,-16.87 18.93,-35.45 6.12,-52.29 -11.19,-9.69 -24.46,-16.62 -36.93,-24.47 -44.08,22.62 -88.28,44.78 -132.01,67.96 10.04,20.77 22.28,40.64 28.5,62.9 -0.45,24.36 -4.61,49.17 5.89,72.13 -10.05,5.31 -20.19,10.14 -30.12,15.34 v 0"
         style="fill:#fbc349;fill-opacity:1;fill-rule:nonzero;stroke:none"
         id="path278" /><path
         d="m 5493.45,3038.43 c 100.62,45.36 202.16,89.09 299.23,141.93 4.15,-5.06 12.33,-15.21 16.5,-20.29 -3.01,-16.39 -9.7,-34.06 -0.46,-49.86 -6.94,-9.46 -12.82,-19.61 -18,-30.23 4.03,-25.16 -2.19,-50.31 -2.44,-75.59 l -0.11,-3.01 c -85.4,-42.93 -172.62,-81.82 -260.34,-119.66 -7.73,1.62 -23.19,4.72 -30.92,6.34 16.05,44.54 8.64,93.12 24.1,137.57 -9.21,4.38 -18.45,8.65 -27.56,12.8 v 0"
         style="fill:#fbc14a;fill-opacity:1;fill-rule:nonzero;stroke:none"
         id="path280" /><path
         d="m 2690.99,2842.26 c 82.97,99.46 161.21,203.32 247.07,300.26 28.72,-28.98 63.81,-50.77 92.43,-79.98 -15.12,-74.66 -31.04,-149.32 -41.08,-224.79 41.19,53.32 84.12,105.25 126.82,157.41 29.42,-24.01 59.2,-47.78 88.51,-72.02 -83.2,-99.01 -161.21,-202.75 -246.49,-300.03 -27.69,27.13 -59.43,49.27 -88.4,74.89 13.62,76.97 31.05,153.6 37.85,231.61 -41.43,-54 -85.04,-106.28 -128.09,-159.02 -29.31,24.25 -58.85,48.12 -88.62,71.67 v 0"
         style="fill:#96d6f5;fill-opacity:1;fill-rule:nonzero;stroke:none"
         id="path282" /><path
         d="m 4178.93,3112.65 c 10.85,6.66 21.82,13.25 32.9,19.49 37.73,-18.71 75.81,-36.93 114.13,-54.71 -15.71,-51 -10.74,-108.47 -40.28,-154.86 -43.62,19.97 -86.67,41.08 -130.06,61.39 12.47,7.85 25.74,14.78 36.93,24.47 12.81,16.84 -1.38,35.42 -6.12,52.29 4.97,13.13 10.17,26.17 15.35,39.1 -5.42,-3.69 -16.26,-11.08 -21.69,-14.77 -0.34,9.23 -0.81,18.48 -1.16,27.6 v 0"
         style="fill:#fbc758;fill-opacity:1;fill-rule:nonzero;stroke:none"
         id="path284" /><path
         d="m 4285.68,2922.57 c 29.54,46.39 24.57,103.86 40.28,154.86 35.88,-16.14 71.89,-32.08 108.01,-48.12 -8.77,-52.85 -14.19,-106.28 -29.66,-157.85 -39.81,16.37 -79.4,33.33 -118.63,51.11 v 0"
         style="fill:#fbcb65;fill-opacity:1;fill-rule:nonzero;stroke:none"
         id="path286" /><path
         d="m 6805.18,2957.54 c 36.58,75.82 123.83,136.62 210.25,116.08 31.05,-10.37 65.9,-25.73 81.95,-56.19 -31.05,-20.66 -58.75,-45.71 -88.75,-67.73 -15.47,8.3 -30.7,19.26 -48.69,20.19 -39.25,-4.16 -70.17,-45.02 -57.36,-84.02 13.5,-42.24 43.16,-80.66 82.62,-101.79 31.73,-17.99 75.94,-1.03 88.75,32.67 10.26,22.04 -3.92,43.84 -10.15,64.63 31.03,23.41 61.15,47.99 91.39,72.47 32.77,-42.47 44.19,-101.79 24.69,-152.45 -33.92,-97.06 -152.21,-156.95 -249.5,-118.17 -101.54,41.55 -173.9,168.83 -125.2,274.31 v 0"
         style="fill:#97d6f5;fill-opacity:1;fill-rule:nonzero;stroke:none"
         id="path288" /><path
         d="m 5264.25,2947.03 c 76.87,29.2 154.29,57.13 229.2,91.4 9.11,-4.15 18.35,-8.42 27.56,-12.8 -15.46,-44.45 -8.05,-93.03 -24.1,-137.57 7.73,-1.62 23.19,-4.72 30.92,-6.34 -90.81,-36.59 -180.83,-78.83 -276.37,-101.44 9.44,48.94 21.8,98.09 22.48,147.94 -2.42,4.74 -7.25,14.07 -9.69,18.81 v 0"
         style="fill:#fcd171;fill-opacity:1;fill-rule:nonzero;stroke:none"
         id="path290" /><path
         d="m 4433.97,3029.31 c 68.31,-29.89 138.13,-55.85 207.48,-83.31 -8.31,-0.68 -25.15,-1.96 -33.58,-2.66 4.16,-7.27 8.31,-14.54 12.59,-21.93 -9.35,-36.57 -23.31,-74.19 -12.82,-112.28 -2.54,-2.53 -7.85,-7.5 -10.39,-10.05 -66.69,15.94 -129.59,46.41 -192.94,72.38 15.47,51.57 20.89,105 29.66,157.85 v 0"
         style="fill:#fcd37d;fill-opacity:1;fill-rule:nonzero;stroke:none"
         id="path292" /><path
         d="m 4607.87,2943.34 c 8.43,0.7 25.27,1.98 33.58,2.66 29.08,-10.28 57.83,-21.24 87.02,-31.39 -5.78,-52.96 -24.12,-104.67 -24.82,-158.09 -36.57,13.84 -73.62,25.96 -110.43,38.77 l 4.03,3.79 c 2.54,2.55 7.85,7.52 10.39,10.05 -10.49,38.09 3.47,75.71 12.82,112.28 -4.28,7.39 -8.43,14.66 -12.59,21.93 v 0"
         style="fill:#fddfa1;fill-opacity:1;fill-rule:nonzero;stroke:none"
         id="path294" /><path
         d="m 5202.06,2924.08 c 20.77,7.49 41.31,15.57 62.19,22.95 2.44,-4.74 7.27,-14.07 9.69,-18.81 -0.68,-49.85 -13.04,-99 -22.48,-147.94 l -1.51,-6.57 c -22.61,-7.5 -45.36,-14.77 -68.09,-21.59 -3.69,58.5 17.33,114.14 20.2,171.96 v 0"
         style="fill:#fddb96;fill-opacity:1;fill-rule:nonzero;stroke:none"
         id="path296" /><path
         d="m 5110.21,2893.03 c 30.57,10.26 61.26,20.42 91.85,31.05 -2.87,-57.82 -23.89,-113.46 -20.2,-171.96 -23.43,-8.41 -46.73,-17.65 -71.08,-22.96 -4.17,1.85 -12.22,5.66 -16.39,7.5 13.39,43.62 28.39,86.79 36.82,131.56 -5.2,6.23 -15.8,18.58 -21,24.81 v 0"
         style="fill:#fde2ad;fill-opacity:1;fill-rule:nonzero;stroke:none"
         id="path298" /><path
         d="m 4703.65,2756.52 c 0.7,53.42 19.04,105.13 24.82,158.09 34.96,-12.01 70.04,-23.66 105.35,-34.85 -22.61,-48.13 -21.69,-102.36 -40.73,-151.64 -30,9.23 -59.66,19.03 -89.44,28.4 v 0"
         style="fill:#fde8ba;fill-opacity:1;fill-rule:nonzero;stroke:none"
         id="path300" /><path
         d="m 3210.85,2870.18 c 8.44,7.26 12.7,24.11 25.51,23.89 31.38,-21.81 60.36,-47.09 91.28,-69.71 -57.24,-75.93 -116.33,-150.59 -174.37,-225.94 43.39,-36.24 90.24,-68.2 133.28,-105.02 -20.42,-26.54 -40.5,-53.42 -62.08,-79.15 -75.47,59.43 -151.06,118.73 -228.02,176.08 69.12,94.97 143.9,185.8 214.4,279.85 v 0"
         style="fill:#96d6f5;fill-opacity:1;fill-rule:nonzero;stroke:none"
         id="path302" /><path
         d="m 5013.05,2862.23 c 32.3,10.26 64.84,20.29 97.16,30.8 5.2,-6.23 15.8,-18.58 21,-24.81 -8.43,-44.77 -23.43,-87.94 -36.82,-131.56 4.17,-1.84 12.22,-5.65 16.39,-7.5 -44.31,-16.03 -90.82,-24.82 -135.13,-40.96 20.89,55.51 30.7,115.28 37.4,174.03 v 0"
         style="fill:#fef2d1;fill-opacity:1;fill-rule:nonzero;stroke:none"
         id="path304" /><path
         d="m 4793.09,2728.12 c 19.04,49.28 18.12,103.51 40.73,151.64 23.78,-7.27 47.43,-15.23 71.31,-22.73 -11.65,-50.9 -21.45,-102.36 -25.03,-154.52 -29.2,7.96 -58.39,16.15 -87.01,25.61 v 0"
         style="fill:#fef3da;fill-opacity:1;fill-rule:nonzero;stroke:none"
         id="path306" /><path
         d="m 4905.13,2857.03 c 35.43,-16.05 73.05,-7.62 107.92,5.2 -6.7,-58.75 -16.51,-118.52 -37.4,-174.03 -32.77,-7.73 -64.5,5.77 -95.55,14.31 3.58,52.16 13.38,103.62 25.03,154.52 v 0"
         style="fill:#fffaf6;fill-opacity:1;fill-rule:nonzero;stroke:none"
         id="path308" /><path
         d="m 3255.63,2391.84 c 71.67,107.1 143.21,214.2 216.61,320.13 117.59,-77.32 229.52,-163.75 353.81,-230.11 -3.47,-50.88 -7.04,-101.67 -12.35,-152.44 42.12,28.27 83.32,57.81 123.48,88.75 37.73,-17.78 73.97,-38.78 110.32,-59.2 1.84,-14.43 -16.16,-16.85 -24.7,-24.47 -68.89,-42.47 -139.52,-82.63 -206.68,-127.63 -25.04,-39.92 -45.47,-82.62 -69.47,-123.36 -34.73,20.77 -71.43,37.96 -104.89,60.69 23.65,40.28 47.65,80.56 67.85,122.69 4.04,75.34 0.46,151.05 1.62,226.51 -11.32,-13.73 -21.7,-28.15 -31.4,-43.15 -55.5,36.22 -110.31,73.4 -164.78,111.24 -8.66,-12.58 -17.2,-25.28 -25.86,-37.97 49.74,-34.16 100.17,-67.28 149.56,-102.02 -17.42,-25.6 -34.96,-51.23 -52.39,-76.85 -50.08,33.24 -99.81,67.05 -149.44,100.97 -8.65,-12.22 -17.19,-24.46 -25.73,-36.8 55.74,-39.82 113.44,-76.87 169.86,-115.87 -19.26,-27.7 -37.84,-56.08 -57.93,-83.43 -88.16,62.32 -178.87,120.83 -267.49,182.32 v 0"
         style="fill:#96d6f5;fill-opacity:1;fill-rule:nonzero;stroke:none"
         id="path310" /><path
         d="m 6366.45,2632.8 c 30.34,26.65 63.79,49.17 96,73.5 57.01,-76.03 114.71,-151.62 171.84,-227.56 45.57,33.13 89.54,68.44 135.92,100.51 19.74,-26.53 39.71,-53.07 59.2,-79.97 -76.85,-58.04 -153.59,-116.42 -230.8,-174.01 -78.12,102 -153.37,206.11 -232.16,307.53 v 0"
         style="fill:#96d6f5;fill-opacity:1;fill-rule:nonzero;stroke:none"
         id="path312" /><path
         d="m 6115.1,2466.86 c 34.38,21 67.04,45.01 101.67,65.77 50.06,-80.31 105.59,-157.18 156.02,-237.36 48.01,30.46 94.74,62.76 143.2,92.78 16.74,-27.94 34.39,-55.28 54.24,-81.24 -77.9,-57.93 -161.33,-108.38 -242.35,-161.91 -70.26,107.79 -142.39,214.3 -212.78,321.96 v 0"
         style="fill:#96d6f5;fill-opacity:1;fill-rule:nonzero;stroke:none"
         id="path314" /><path
         d="m 5905.52,2352.84 c 35.2,17.32 68.78,37.97 105.14,52.86 99.35,-92.9 201.37,-183.01 301.65,-275.11 -35.54,-20.54 -73.04,-37.5 -108.01,-59.2 -15,13.15 -29.32,27.11 -43.04,41.31 -34.73,-19.04 -70.06,-36.69 -104.44,-56.2 1.39,-18.69 11.54,-39.46 5.66,-57.81 -32.9,-19.27 -67.98,-34.61 -100.63,-54.35 -22.27,135.59 -37.61,272.33 -56.33,408.5 v 0"
         style="fill:#96d6f5;fill-opacity:1;fill-rule:nonzero;stroke:none"
         id="path316" /><path
         d="m 4158.74,2308.54 c 96.01,-27.01 188.1,-66.93 283.19,-97.18 -10.85,-31.16 -22.5,-62.08 -32.66,-93.58 -58.39,14.77 -113.09,40.96 -171.02,57.24 -3.23,-10.74 -9.69,-32.32 -12.93,-43.04 47.9,-16.64 95.79,-33.24 143.22,-51.25 -9.93,-29.31 -20.42,-58.5 -31.28,-87.58 -48.12,16.84 -95.89,34.85 -144.47,50.54 -15.24,-45.7 -32.43,-90.81 -48.35,-136.28 -38.21,11.65 -75.37,25.96 -112.98,38.89 40.96,121.28 87.35,240.6 127.28,362.24 v 0"
         style="fill:#96d6f5;fill-opacity:1;fill-rule:nonzero;stroke:none"
         id="path318" /><path
         d="m 5665.86,2249.34 c 39,12.92 81.23,33.12 122.53,18.23 57.84,-15.7 86.33,-98.43 40.74,-141.95 82.39,1.28 125.68,-103.27 82.98,-167.33 -22.62,-37.61 -65.08,-55.26 -104.66,-68.87 -59.91,-20.08 -118.52,-43.4 -178.52,-62.78 -43.98,119.77 -83.91,240.94 -130.76,359.57 53.66,26.31 112.29,40.85 167.69,63.13 v 0"
         style="fill:#97d6f5;fill-opacity:1;fill-rule:nonzero;stroke:none"
         id="path320" /><path
         d="m 6018.86,2259.84 c 28.39,-27.01 55.86,-55.05 83.54,-82.86 -20.89,-11.19 -41.88,-21.93 -63.13,-32.19 -5.99,38.53 -13.72,76.73 -20.41,115.05 v 0"
         style="fill:#161821;fill-opacity:1;fill-rule:nonzero;stroke:none"
         id="path322" /><path
         d="m 4505.16,2175.7 c 84.02,28.18 190.3,3.13 238.89,-75.11 48.35,-77.9 35.54,-186.73 -22.85,-255.96 -84.25,-101.66 -271.89,-73.16 -323.35,48.12 -42.7,101.43 -0.81,242.46 107.31,282.95 v 0"
         style="fill:#96d6f5;fill-opacity:1;fill-rule:nonzero;stroke:none"
         id="path324" /><path
         d="m 5160.18,2132.44 c 110.43,14.88 219.94,36.58 330.15,53.2 4.51,-32.78 9.46,-65.67 16.04,-98.21 -34.74,-6.81 -69.59,-12.58 -104.79,-16.27 12.24,-94.74 30.36,-188.79 45.93,-283.18 -39.46,-6.23 -78.81,-13.06 -118.04,-19.4 -18.6,93.94 -28.74,189.61 -50.2,282.84 -34.28,-8.53 -69.12,-13.5 -103.99,-18.56 -5.64,33.22 -10.72,66.34 -15.1,99.58 v 0"
         style="fill:#97d6f5;fill-opacity:1;fill-rule:nonzero;stroke:none"
         id="path326" /><path
         d="m 5643.81,2141.9 c 26.77,8.89 52.62,21.93 80.78,25.85 23.54,0.91 33.92,-35.31 14.42,-48.13 -23.77,-13.84 -50.67,-20.65 -76.04,-30.57 -6.57,17.76 -12.93,35.2 -19.16,52.85 v 0"
         style="fill:#161821;fill-opacity:1;fill-rule:nonzero;stroke:none"
         id="path328" /><path
         d="m 4933.65,2138.55 c 57.93,10.85 123.24,3.92 170.68,-33.93 84.92,-66.36 95.31,-201.02 36.23,-287.57 -70.97,-105.83 -251.23,-103.28 -319.89,3.7 -73.97,108.46 -25.28,291.85 112.98,317.8 v 0"
         style="fill:#97d6f5;fill-opacity:1;fill-rule:nonzero;stroke:none"
         id="path330" /><path
         d="m 4560.22,2084.77 c 43.27,17.66 93.47,-18.92 93.81,-64.74 2.88,-48.47 -8.88,-108.93 -56.2,-133.39 -43.27,-21.11 -96.59,16.03 -96.93,62.76 -3.12,49.29 9.81,112.87 59.32,135.37 v 0"
         style="fill:#161821;fill-opacity:1;fill-rule:nonzero;stroke:none"
         id="path332" /><path
         d="m 4953.14,2038.97 c 40.4,23.18 91.64,-9.01 99.01,-52.28 13.86,-50.54 6.47,-123.94 -48.81,-146.44 -43.61,-16.96 -87.81,21.81 -93.58,64.38 -8.89,46.16 -3.01,109.88 43.38,134.34 v 0"
         style="fill:#161821;fill-opacity:1;fill-rule:nonzero;stroke:none"
         id="path334" /><path
         d="m 5688.01,2020.14 c 31.15,9.94 61.05,26.21 94.05,29.32 26.66,-7.27 38.07,-49.61 10.73,-63.58 -26.31,-13.39 -54.94,-21.12 -82.29,-31.85 -7.96,22.04 -15.57,43.96 -22.49,66.11 v 0"
         style="fill:#161821;fill-opacity:1;fill-rule:nonzero;stroke:none"
         id="path336" /></g></g></svg>
