<svg width="110" height="110" viewBox="0 0 110 110" fill="none" xmlns="http://www.w3.org/2000/svg">
<path d="M55.0024 0C24.6719 0 0 24.6708 0 55.0052C0 85.3246 24.6719 110.001 55.0024 110.001C85.3229 110.001 110 85.3246 110 55.0052C110 24.6708 85.3229 0 55.0024 0ZM55.0057 7.63289C81.17 7.63289 102.376 28.839 102.376 55.0023C102.376 81.1656 81.17 102.372 55.0057 102.372C28.8415 102.372 7.63461 81.1656 7.63461 55.0023C7.63461 28.839 28.8415 7.63289 55.0057 7.63289Z" fill="black"/>
<path d="M50.9297 52.9642H31.7058L36.1124 46.0741H48.0553L52.4169 39.2091H25.7719L21.4304 46.0741H27.825L19.1169 59.8343H54.9106L68.506 38.2477L73.4234 46.0641H69.182L64.8455 52.9642H77.7799L82.1315 59.8343H90.3838L68.506 25.1985L50.9297 52.9642ZM34.4449 25.4539L30.1184 32.319L58.3808 32.3089L62.7123 25.4539H34.4449V25.4539Z" fill="black"/>
<path d="M91.1688 63.8481V64.0935H91.7347V65.2952H92.0151V64.0935H92.5809V63.8481H91.1688Z" fill="black"/>
<path d="M94.2784 63.8481L93.7226 64.7094L93.1567 63.8481H92.9114V65.2902H93.1567V64.3989L93.1317 64.2437L93.2168 64.3889L93.6775 65.115H93.7276L94.1883 64.3989L94.2534 64.2437V64.3989V65.2902H94.5037V63.8481H94.2784Z" fill="black"/>
<path d="M28.7092 75.0509C28.7092 75.9272 28.4037 76.6883 27.7978 77.2992C27.1819 77.9101 26.4308 78.2205 25.5595 78.2205H21.849C20.9577 78.2205 20.2116 77.9201 19.6157 77.3292C19.0298 76.7384 18.7294 76.0073 18.7294 75.106V73.6339H21.0178L21.3683 74.9959C21.5185 75.5667 21.9041 75.8521 22.53 75.8521H25.0538C25.3742 75.8521 25.6246 75.7319 25.8249 75.5116C26.0152 75.2763 26.1103 74.9758 26.1103 74.6303V73.008C26.1103 72.2168 25.7648 71.8062 25.0538 71.8062H21.879C21.0178 71.8062 20.2767 71.5058 19.6507 70.8999C19.0448 70.269 18.7294 69.5179 18.7294 68.6367V66.5036C18.7294 65.6473 19.0448 64.9063 19.6507 64.2854C20.2767 63.6645 21.0178 63.364 21.879 63.364H25.5595C26.4308 63.364 27.1719 63.6594 27.7728 64.2403C28.3787 64.8311 28.6641 65.5722 28.6641 66.4635V67.7954H26.3907L26.0502 66.5887C25.87 66.0078 25.4744 65.7274 24.8935 65.7274H22.4098C22.0793 65.7274 21.824 65.8476 21.6287 66.083C21.4284 66.3083 21.3382 66.5987 21.3382 66.9592V68.211C21.3382 68.9872 21.6938 69.3777 22.4098 69.3777H25.5595C26.4208 69.3777 27.1719 69.6882 27.7778 70.3191C28.4037 70.945 28.7092 71.6761 28.7092 72.5373V75.0509Z" fill="black"/>
<path d="M41.6899 69.6145C41.6899 70.4808 41.3694 71.2269 40.7535 71.8428C40.1275 72.4637 39.3714 72.7741 38.5051 72.7741H34.4191V78.222H31.7902V63.3655H38.5051C39.3714 63.3655 40.1275 63.6759 40.7535 64.2868C41.3694 64.8977 41.6899 65.6388 41.6899 66.495V69.6145ZM37.9894 65.7639H34.4191V70.3706H37.9894L38.7505 70.0251C38.9458 69.7948 39.0409 69.5094 39.0409 69.1438V66.9807C39.0409 66.6202 38.9458 66.3448 38.7505 66.1094L37.9894 65.7639Z" fill="black"/>
<path d="M65.0005 78.2226L62.587 72.4141H60.0933V78.2226H57.4594V63.366H64.0341C64.9154 63.366 65.6565 63.6765 66.2674 64.2824C66.8783 64.9033 67.1938 65.6493 67.1938 66.4956V69.0843C67.1938 69.7603 67.0035 70.3712 66.638 70.907C66.2524 71.4477 65.7717 71.8333 65.1808 72.0787L67.7947 78.2226H65.0005ZM63.5384 65.7645H60.0933V70.0107H63.5384L64.2644 69.6802C64.4647 69.4549 64.5549 69.1694 64.5549 68.8089V66.9763C64.5549 66.6308 64.4647 66.3453 64.2644 66.105L63.5384 65.7645Z" fill="black"/>
<path d="M79.0628 65.7615H75.2522V78.2196H72.6283V65.7615H68.8427V63.368H79.0628V65.7615Z" fill="black"/>
<path d="M90.9681 75.0509C90.9681 75.9272 90.6576 76.6883 90.0567 77.2992C89.4308 77.9101 88.6847 78.2205 87.8034 78.2205H84.0929C83.2116 78.2205 82.4705 77.9201 81.8646 77.3292C81.2787 76.7384 80.9733 76.0073 80.9733 75.106V73.6339H83.2667L83.6072 74.9959C83.7674 75.5667 84.158 75.8521 84.7789 75.8521H87.3027C87.6181 75.8521 87.8785 75.7319 88.0788 75.5116C88.2691 75.2763 88.3492 74.9758 88.3492 74.6303V73.008C88.3492 72.2168 88.0087 71.8062 87.3027 71.8062H84.138C83.2667 71.8062 82.5156 71.5058 81.9046 70.8999C81.2937 70.269 80.9733 69.5179 80.9733 68.6367V66.5036C80.9733 65.6473 81.2937 64.9063 81.9046 64.2854C82.5156 63.6645 83.2667 63.364 84.138 63.364H87.8034C88.6847 63.364 89.4208 63.6594 90.0217 64.2403C90.6176 64.8311 90.923 65.5722 90.923 66.4635V67.7954H88.6446L88.2941 66.5887C88.1139 66.0078 87.7283 65.7274 87.1424 65.7274H84.6487C84.3282 65.7274 84.0578 65.8476 83.8776 66.083C83.6773 66.3083 83.5871 66.5987 83.5871 66.9592V68.211C83.5871 68.9872 83.9427 69.3777 84.6487 69.3777H87.8034C88.6747 69.3777 89.4108 69.6882 90.0217 70.3191C90.6576 70.945 90.9681 71.6761 90.9681 72.5373V75.0509Z" fill="black"/>
<path d="M50.5847 65.7615H48.061L47.2898 66.107C47.1096 66.3423 47.0094 66.6278 47.0094 66.9833V74.5943C47.0094 74.9448 47.1096 75.2252 47.2898 75.4606L48.061 75.8311H50.5847L51.3458 75.4606C51.5461 75.2252 51.6463 74.9448 51.6463 74.5943V66.9833C51.6463 66.6278 51.5461 66.3423 51.3458 66.107L50.5847 65.7615ZM54.2652 75.0299C54.2652 75.9312 53.9597 76.6823 53.3438 77.2982C52.7129 77.9041 51.9818 78.2196 51.0905 78.2196H47.5402C46.6639 78.2196 45.9028 77.9041 45.2969 77.2982C44.686 76.6823 44.3655 75.9312 44.3655 75.0299V66.4876C44.3655 65.6463 44.686 64.8953 45.2969 64.2844C45.9028 63.6685 46.6639 63.368 47.5402 63.368H51.0905C51.9818 63.368 52.7129 63.6685 53.3438 64.2744C53.9597 64.8752 54.2652 65.6313 54.2652 66.4876V75.0299Z" fill="black"/>
</svg>
