<svg xmlns="http://www.w3.org/2000/svg" width="134" height="134" fill="none" viewBox="0 0 134 134"><circle cx="67.5" cy="68.5" r="56.5" fill="#fff"/><path fill="#000" d="M116.267 56.216L88.4387 76.4346L99.068 109.148C99.8867 111.667 97.0027 113.761 94.86 112.205L67.032 91.9866L39.2053 112.205C37.0627 113.761 34.1787 111.667 34.9973 109.148L45.6267 76.4346L17.7987 56.216C15.656 54.66 16.7573 51.2707 19.4053 51.2707H53.8027L64.432 18.556C65.2507 16.0373 68.8147 16.0373 69.632 18.556L80.2627 51.2707H114.659C117.308 51.2707 118.409 54.66 116.267 56.216ZM66.6667 -1.23978e-05C29.848 -1.23978e-05 0 29.848 0 66.6667C0 103.487 29.848 133.333 66.6667 133.333C103.485 133.333 133.333 103.487 133.333 66.6667C133.333 29.848 103.485 -1.23978e-05 66.6667 -1.23978e-05Z"/></svg>