<svg xmlns="http://www.w3.org/2000/svg" width="120" height="21" fill="none" viewBox="0 0 120 21"><path fill="#000" d="M55.7343 16.2746H49.1954L49.1926 11.4409H55.755C57.6986 11.4409 58.5416 12.2004 58.5416 13.9265C58.5416 15.2185 58.0137 16.2746 55.7343 16.2746ZM55.1521 4.07283C57.2497 4.07283 57.8952 4.83408 57.8952 6.10081C57.8952 7.3658 57.3358 8.26974 55.2313 8.26974L49.1926 8.27179V4.07315L55.1521 4.07283ZM60.1346 9.69829C61.2987 8.78914 61.9642 7.46411 61.9642 5.86156C61.9642 4.26337 61.3161 0.548451 55.3374 0.548451H45.4516V19.7851H55.9647C60.1981 19.7851 62.6281 17.6475 62.6281 13.9326C62.6281 12.1204 61.7641 10.671 60.1346 9.69829ZM104.283 0.548102V4.46051H110.332V19.7848H114.103V4.46051H120V0.548102H104.283ZM92.4393 16.5118C88.7792 16.5118 85.909 13.6991 85.909 10.1077C85.909 6.51633 88.7792 3.70534 92.4393 3.70534C96.1038 3.70534 98.9704 6.51633 98.9704 10.1077C98.9704 13.6991 96.1038 16.5118 92.4393 16.5118ZM92.4393 0C86.6607 0 82.1306 4.43963 82.1306 10.1086C82.1306 15.7784 86.6607 20.2163 92.4393 20.2163C98.2214 20.2163 102.751 15.7784 102.751 10.1086C102.751 4.43963 98.2214 0 92.4393 0ZM67.9796 0.548102V19.7804H80.9619V15.8889H71.745V0.548102H67.9796ZM36.6539 0.548786V10.5886C36.6539 13.5075 36.352 16.6012 31.5696 16.6012C26.7854 16.6012 26.4453 13.5728 26.4453 10.5886V0.548786H22.6973V10.827C22.6973 15.4172 23.9797 20.3196 31.5696 20.3196C39.1578 20.3196 40.4332 15.3467 40.4332 10.827V0.548786H36.6539ZM13.459 0.548102V7.71084H3.76799V0.543744H0V19.7874H3.76799V11.6476H13.459V19.7874H17.2009V0.548102H13.459Z"/></svg>