<svg xmlns="http://www.w3.org/2000/svg" width="183" height="41" fill="none" viewBox="0 0 183 41"><path fill="#000" d="M35.2426 17.6243L26.8074 23.7529L30.0294 33.669C30.2775 34.4324 29.4033 35.0674 28.7539 34.5957L20.3187 28.467L11.8839 34.5957C11.2344 35.0674 10.3602 34.4324 10.6084 33.669L13.8303 23.7529L5.39511 17.6243C4.74563 17.1526 5.07946 16.1252 5.88212 16.1252H16.3086L19.5306 6.20881C19.7787 5.44536 20.859 5.44536 21.1068 6.20881L24.3291 16.1252H34.7552C35.5583 16.1252 35.8921 17.1526 35.2426 17.6243ZM20.2079 0.584138C9.04749 0.584138 0 9.63163 0 20.7921C0 31.9529 9.04749 41 20.2079 41C31.3684 41 40.4159 31.9529 40.4159 20.7921C40.4159 9.63163 31.3684 0.584138 20.2079 0.584138Z"/><path fill="#000" d="M51.072 27.7166H53.8409L54.6991 22.5521H57.6172C61.1622 22.5521 63.4012 20.4326 63.8863 17.4921C64.3714 14.5665 62.8563 12.4321 59.3412 12.4321H53.6095L51.072 27.7166ZM55.0797 20.2758L55.9977 14.7456H58.5352C60.6099 14.7456 61.3264 15.8577 61.0652 17.4921C60.804 19.1116 59.692 20.2758 57.6247 20.2758H55.0797Z"/><path fill="#000" d="M63.9318 27.7166H66.6334L67.7455 20.9774C67.9992 19.5221 69.2605 18.4921 70.7382 18.4921C71.2084 18.4921 71.7532 18.5668 71.9845 18.6489L72.4025 16.1636C72.1413 16.1114 71.7457 16.089 71.4397 16.089C70.1262 16.089 68.8873 16.8353 68.2604 18.1638H68.141L68.4619 16.2532H65.8424L63.9318 27.7166Z"/><path fill="#000" d="M76.3326 27.9405C79.0118 27.9405 81.0493 26.6344 81.8702 24.6418L79.3999 24.3582C78.8626 25.3359 77.9073 25.8359 76.7207 25.8359C74.8996 25.8359 73.9667 24.9105 74.3026 22.7611L74.3101 22.7238H82.3031L82.43 21.8953C83.1016 17.8802 80.9821 16.1039 78.161 16.1039C74.8847 16.1039 72.3323 18.5145 71.7502 22.0521C71.1457 25.6418 72.8846 27.9405 76.3326 27.9405ZM74.631 20.9027C74.937 19.5295 76.3027 18.2085 77.855 18.2085C79.4148 18.2085 80.2582 19.3429 79.997 20.9027H74.631Z"/><path fill="#000" d="M83.2479 27.7166H85.9571L87.1213 20.746C87.3452 19.3429 88.4497 18.3802 89.614 18.3802C90.7633 18.3802 91.4052 19.1414 91.226 20.3281L89.9872 27.7166H92.6366L93.8381 20.5669C94.0396 19.2683 94.9576 18.3802 96.2562 18.3802C97.3533 18.3802 98.1071 19.0146 97.8906 20.44L96.6667 27.7166H99.3683L100.652 20.0221C101.077 17.4697 99.8236 16.1039 97.7339 16.1039C96.0622 16.1039 94.6442 16.9249 93.9352 18.2011H93.8158C93.5993 16.9025 92.6067 16.1039 91.0693 16.1039C89.5319 16.1039 88.2557 16.895 87.5616 18.2011H87.4198L87.7482 16.2532H85.1585L83.2479 27.7166Z"/><path fill="#000" d="M101.576 27.7166H104.278L106.189 16.2532H103.487L101.576 27.7166ZM105.233 14.6113C106.092 14.6113 106.853 13.9545 106.912 13.1485C106.98 12.335 106.338 11.6783 105.48 11.6783C104.614 11.6783 103.86 12.335 103.785 13.1485C103.718 13.9545 104.375 14.6113 105.233 14.6113Z"/><path fill="#000" d="M111.576 27.9405C114.255 27.9405 116.293 26.6344 117.113 24.6418L114.643 24.3582C114.106 25.3359 113.151 25.8359 111.964 25.8359C110.143 25.8359 109.21 24.9105 109.546 22.7611L109.553 22.7238H117.546L117.673 21.8953C118.345 17.8802 116.225 16.1039 113.404 16.1039C110.128 16.1039 107.576 18.5145 106.993 22.0521C106.389 25.6418 108.128 27.9405 111.576 27.9405ZM109.874 20.9027C110.18 19.5295 111.546 18.2085 113.098 18.2085C114.658 18.2085 115.501 19.3429 115.24 20.9027H109.874Z"/><path fill="#000" d="M118.484 27.7166H121.185L122.297 20.9774C122.551 19.5221 123.812 18.4921 125.29 18.4921C125.76 18.4921 126.305 18.5668 126.536 18.6489L126.954 16.1636C126.693 16.1114 126.298 16.089 125.992 16.089C124.678 16.089 123.439 16.8353 122.812 18.1638H122.693L123.014 16.2532H120.394L118.484 27.7166Z"/><path fill="#000" d="M141.455 19.2832C141.403 17.3354 140.029 16.1039 137.298 16.1039C134.581 16.1039 132.522 17.41 132.171 19.4922C131.88 21.2013 132.775 22.3357 134.902 22.8059L136.783 23.2163C137.813 23.4477 138.186 23.8208 138.082 24.4328C137.962 25.2538 136.947 25.9105 135.611 25.9031C134.432 25.8956 133.738 25.3732 133.678 24.3358L131.021 24.5895C131.014 26.6867 132.604 27.9405 135.462 27.9405C138.283 27.9405 140.507 26.5001 140.865 24.3806C141.141 22.6939 140.216 21.664 138.126 21.1938L136.231 20.7759C135.126 20.5072 134.76 20.1415 134.872 19.5295C134.992 18.7086 135.999 18.119 137.171 18.119C138.38 18.119 138.888 18.7832 138.97 19.5519L141.455 19.2832Z"/><path fill="#000" d="M141.292 32.0154H143.993L145.008 25.9105H145.135C145.419 26.7464 146.105 27.9181 148.076 27.9181C150.777 27.9181 153.165 25.7762 153.785 21.9998C154.419 18.1787 152.688 16.1039 150.038 16.1039C148.016 16.1039 146.964 17.3204 146.426 18.1488H146.262L146.575 16.2532H143.919L141.292 32.0154ZM145.613 21.9849C145.971 19.7609 147.172 18.3205 148.919 18.3205C150.717 18.3205 151.374 19.8504 151.031 21.9849C150.665 24.1343 149.479 25.7016 147.702 25.7016C145.978 25.7016 145.254 24.2089 145.613 21.9849Z"/><path fill="#000" d="M159.663 27.9405C162.976 27.9405 165.469 25.612 166.051 22.1043C166.633 18.5071 164.872 16.1039 161.484 16.1039C158.163 16.1039 155.67 18.4399 155.095 21.9625C154.513 25.5374 156.267 27.9405 159.663 27.9405ZM159.879 25.7762C158.066 25.7762 157.469 24.1567 157.804 22.0894C158.148 19.9549 159.387 18.2459 161.267 18.2459C163.073 18.2459 163.678 19.8878 163.342 21.9476C162.999 24.0895 161.76 25.7762 159.879 25.7762Z"/><path fill="#000" d="M166.879 27.7166H169.58L170.692 20.9774C170.946 19.5221 172.207 18.4921 173.685 18.4921C174.155 18.4921 174.7 18.5668 174.931 18.6489L175.349 16.1636C175.088 16.1114 174.692 16.089 174.386 16.089C173.073 16.089 171.834 16.8353 171.207 18.1638H171.088L171.409 16.2532H168.789L166.879 27.7166Z"/><path fill="#000" d="M182.957 16.2532H180.688L181.143 13.5068H178.442L177.986 16.2532H176.367L176.024 18.3429H177.643L176.591 24.7164C176.218 26.8658 177.591 27.9256 179.643 27.8733C180.404 27.8509 180.964 27.7017 181.293 27.6047L181.173 25.4926C181.009 25.5224 180.695 25.5971 180.367 25.5971C179.688 25.5971 179.18 25.3582 179.352 24.2686L180.337 18.3429H182.606L182.957 16.2532Z"/></svg>