<svg width="125" height="16" viewBox="0 0 125 16" fill="none" xmlns="http://www.w3.org/2000/svg">
<path fill-rule="evenodd" clip-rule="evenodd" d="M87.4541 0.231869H90.0224V13.3899H101.157L99.5218 15.9604H87.4541V0.231869ZM67.2874 15.9604L57.788 0.971565C57.2041 -0.001419 55.6471 -0.00141874 54.985 1.01068L45.5638 15.9604H48.6784L51.5205 11.4439H57.5938L59.1906 8.87422H53.1172L56.4267 3.69706L64.1743 15.9604H67.2874ZM73.0677 0.236845C68.7277 0.236845 65.8706 3.75538 65.8706 8.09611C65.8706 12.4361 68.7284 15.9561 73.0677 15.9561L83.6212 15.9433L85.2727 13.3956H73.1452C70.2199 13.3956 68.5079 11.0229 68.5079 8.09611C68.5079 5.16934 70.2192 2.79662 73.1452 2.79662H83.9483L85.5429 0.229026L73.0677 0.236845ZM7.19781 2.79662H18.3316C21.2584 2.79662 22.9697 5.16934 22.9697 8.09611C22.9697 11.0229 21.2591 13.3956 18.3316 13.3956H7.19781C4.27103 13.3956 2.56048 11.0229 2.56048 8.09611C2.56048 5.16934 4.27103 2.79662 7.19781 2.79662ZM7.19781 0.236845C2.85707 0.236845 0 3.75538 0 8.09611C0 12.4361 2.85707 15.9561 7.19781 15.9561H18.3316C22.6724 15.9561 25.5294 12.4361 25.5294 8.09611C25.5294 3.75538 22.6724 0.236845 18.3316 0.236845H7.19781ZM103.902 9.34221C104.32 11.668 105.92 13.3956 108.418 13.3956H120.545L118.893 15.9433L108.34 15.9561C103.999 15.9561 101.143 12.4361 101.143 8.09611C101.143 3.75538 104 0.236845 108.34 0.236845L120.815 0.229736L119.222 2.79733H108.419C105.956 2.79733 104.348 4.49579 103.902 6.77319H119.144L117.509 9.34292H103.902V9.34221ZM40.0552 9.56981C41.2787 9.54845 42.4449 9.04741 43.3026 8.1746C44.1603 7.30179 44.6409 6.12704 44.6409 4.90333C44.6409 3.67963 44.1603 2.50487 43.3026 1.63206C42.4449 0.759247 41.2787 0.258208 40.0552 0.236845L26.9548 0.231158V15.9596H29.836V2.79733H40.0552C40.6138 2.79733 41.1494 3.01921 41.5444 3.41417C41.9393 3.80912 42.1612 4.34479 42.1612 4.90333C42.1612 5.46188 41.9393 5.99754 41.5444 6.3925C41.1494 6.78745 40.6138 7.00933 40.0552 7.00933H31.8602L41.105 15.9419H44.8241L38.206 9.5755L40.0552 9.56981ZM123.506 0.246091C124.174 0.246091 124.703 0.77384 124.703 1.47371C124.703 2.18495 124.175 2.70843 123.506 2.70843C122.83 2.70843 122.304 2.18495 122.304 1.47371C122.304 0.77384 122.83 0.246091 123.506 0.246091V0C122.693 0 122.006 0.625184 122.006 1.47299C122.006 2.32933 122.694 2.95451 123.506 2.95451C124.312 2.95451 125 2.32933 125 1.47299C125 0.625184 124.312 0 123.506 0V0.246091Z" fill="black"/>
<path fill-rule="evenodd" clip-rule="evenodd" d="M123.194 0.844258H123.547C123.726 0.844258 123.918 0.883375 123.918 1.09461C123.918 1.35635 123.722 1.37271 123.502 1.37271H123.193V1.59178H123.491L123.941 2.33076H124.23L123.745 1.58039C123.995 1.5491 124.186 1.41681 124.186 1.11169C124.186 0.775267 123.986 0.626617 123.585 0.626617H122.935V2.33076H123.193V0.844258H123.194Z" fill="black"/>
</svg>
